<?xml version="1.0" encoding="UTF-8" standalone="no"?>
<!DOCTYPE svg PUBLIC "-//W3C//DTD SVG 1.1//EN" "http://www.w3.org/Graphics/SVG/1.1/DTD/svg11.dtd">
<svg width="100%" height="100%" viewBox="0 0 838 468" version="1.1" xmlns="http://www.w3.org/2000/svg" xmlns:xlink="http://www.w3.org/1999/xlink" xml:space="preserve" xmlns:serif="http://www.serif.com/" style="fill-rule:evenodd;clip-rule:evenodd;stroke-linecap:round;stroke-linejoin:round;stroke-miterlimit:1.5;">
    <g transform="matrix(1,0,0,1,-1007.84,-0.347454)">
        <g id="Simpsons-Filled-Logo" serif:id="Simpsons Filled Logo" transform="matrix(1,0,0,1,850.581,-342)">
            <rect x="157.259" y="342.347" width="837.482" height="467.305" style="fill:none;"/>
            <clipPath id="_clip1">
                <rect x="157.259" y="342.347" width="837.482" height="467.305"/>
            </clipPath>
            <g clip-path="url(#_clip1)">
                <g id="Layer1" transform="matrix(1,0,0,1,-850.581,342)">
                    <path d="M1205.22,210.194L1212.86,204.86L1215.86,195.841L1212.74,175.4L1202.01,163.132L1174.98,152.697L1152.88,152.58L1137.11,154.632L1113.98,164.319L1092.57,176.755L1063.85,198.543L1040.74,218.217L1030.43,234L1020.93,252.682L1017.17,286.573C1017.17,286.573 1047.55,330.176 1046.83,330.176C1046.12,330.176 1077.67,346.649 1077.67,346.649L1120.73,365.558L1180.6,388.348L1194.03,392.309L1177.44,398.166L1168.35,403.247L1133,408.065L1115.5,413.038L1078.54,411.707L1071.08,413.411L1063.73,417.757L1054.18,431.586L1059.87,452.204L1187.73,447.781L1213.05,431.683L1224.18,418.482L1228.86,406.877L1232.57,382.076L1227.63,371.195L1217.68,366.818L1195.82,355.53L1140.25,333.219L1107.89,321.397L1090.41,311.418L1076.01,302.448L1067.76,294.971L1065.32,290.58L1058.03,285.529L1056,261.803L1063.2,246.739L1074.45,234L1097.65,218.791L1147.15,199.014L1189.19,197.457L1205.22,210.194Z" style="fill:rgb(242,242,242);stroke:black;stroke-width:0.75px;"/>
                    <path d="M1298.95,67.968L1307.18,62.87L1311.67,64.891L1312.81,68.939L1314.66,80.727L1317.72,85.406L1324.69,84.889L1328.53,82.458L1339.07,78.039L1344.75,74.376L1355,72.742L1361.16,52.118L1364.29,42.841L1367.05,41.862L1370.46,41.927L1372.95,42.849L1375.37,45.901L1378.45,51.432L1380.86,63.657L1382.13,72.192L1384.99,83.314L1386.86,91.854L1389.71,95.011L1397.35,95.25L1403.46,89.617L1396.92,42.001L1397.59,34.057L1399.4,27.917L1403.63,26.763L1409.49,25.766L1414.11,27.867L1417.03,33.751L1420.12,48.729L1425.04,78.015L1428.96,84.911L1436.43,80.715L1439.87,63.541L1458.01,23.069L1466.17,14.779L1472.12,8.863L1476.89,5.584L1482.23,3.22L1487.77,2.354L1493.07,2.222L1496.49,3.371L1499.81,5.628L1503.32,7.217L1510.15,12.189L1513.16,17.014L1517.38,27.219L1520.39,48.947L1519.55,66.914L1500.32,92.804L1496.45,103.425L1502.97,104.396L1511.03,100.89L1528.4,88.798L1533.62,86.098L1540.17,76.444L1542.34,74.2L1545.32,73.503L1554.79,76.42L1556.68,78.885L1556.63,82.996L1555.43,87.671L1553.3,94.241L1545.55,110.642L1524.84,126.396L1498.15,131.857L1470.6,131.618L1446.44,108.212L1439.49,97.611L1433.7,100.353L1430.96,106.642L1430.32,112.953L1431.54,120.99L1435.54,130.862L1437.39,138.795L1434.92,149.455L1421.91,149.654L1416.33,143.035L1410.13,119.963L1404.63,117.37L1397.02,119.55L1392.8,122.911L1391.8,132.088L1394.17,144.04L1394.8,152.58L1391.96,160.477L1386.37,162.9L1373.88,152.58L1370.67,139.976L1360.14,124.526L1350.54,110.618L1324.77,116.92L1321.41,120.942L1322.85,129.698L1325.64,152.58L1326.92,170.229L1322.87,176.087L1316.48,179.667L1307.58,178.802L1300.73,162.094L1298.95,133.669L1294.94,125.995L1269.56,124.258L1258.53,124.063L1243.51,115.096L1244.3,103.377L1251.19,98.22L1261.32,97.114L1282.12,94.08L1286.96,92.336L1291.2,76.823L1293.19,72.27L1298.95,67.968ZM1475.26,48.761L1473.22,64.204L1473.7,67.42L1476.96,68.271L1484.97,64.089L1490.95,59.46L1492.69,57.249L1495.22,48.994L1489.68,46.273L1481.07,46.216L1475.26,48.761Z" style="fill:rgb(242,242,242);stroke:black;stroke-width:0.75px;"/>
                    <path d="M1235.17,265.614L1238.67,260.136L1240.74,258.489L1242.68,258.747L1248.06,258.748L1250.18,260.178L1255.87,264.16L1257.43,267.614L1260.36,275.421L1263.38,282.128L1265.7,288.87L1266.21,294.922L1267.75,305.735L1270.43,319.759L1269.8,339.168L1270.01,343.781L1272.85,345.303L1276.91,344.496L1285.89,315.842L1289.79,282.352L1296.83,266.04L1309.63,248.706L1313.56,247.605L1317.53,247.751L1328.56,250.352L1332.73,254.002L1335.01,257.983L1338.51,264.171L1342.01,269.041L1348.16,269.105L1353.2,264.247L1367.6,241.018L1377.09,242.221L1383.34,244.636L1388.96,250.167L1390.01,255.311L1393.97,277.432L1395.12,282.979L1398.56,288.117L1405.31,290.722L1410.51,285.727L1414.01,280.604L1419.01,277.241L1426.18,269.187L1424.3,259.702L1422.84,243.292L1426.84,223.721L1441.94,210.301L1447.98,206.961L1457.82,205.655L1468.94,207.87L1473.22,210.442L1479.44,215.167L1488.34,223.602L1492.23,230.079L1496.26,235.109L1505.84,232.827L1510.7,219.088L1518.89,205.565L1528.46,199.83L1539.93,189.813L1548.61,183.773L1554.01,180.417L1560.18,178.299L1568.43,177.679L1573.99,179.099L1577.28,182.82L1580.1,187.044L1582.03,192.299L1582,198.247L1572.01,210.556L1556.68,220.071L1547.34,223.998L1545.07,229.624L1544.32,234.347L1545.07,237.989L1547.26,240.769L1554.61,248.254L1574.59,264.525L1585.2,263.967L1595.91,234.347L1605.51,220.837L1615.81,219.402L1620.87,220.448L1631.09,223.392L1641.07,225.875L1649.85,231.169L1654.4,237.222L1659.28,246.765L1671.93,248.223L1673.56,240.317L1684.88,226.407L1691.06,224.067L1696.52,226.023L1703.28,227.656L1714.57,231.464L1718.26,230.44L1721.37,216.325L1711.03,196.121L1707.34,187.238L1710.06,174.691L1713.19,168.325L1716.5,167.251L1719.92,168.299L1728.18,173.75L1736.05,183.591L1745.24,195.165L1748.37,197.298L1759.23,178.721L1779.38,145.679L1795.28,134.522L1802.5,129.39L1810.87,128.767L1828.97,130.291L1832.35,132.05L1834.64,133.472L1837.03,135.648L1839.92,138.26L1840.73,141.912L1843.41,155.958L1844.01,161.605L1843.09,166.081L1841.02,169.296L1830.9,176.962L1818.97,163.689L1812.39,161.936L1802.02,169.05L1793.48,181.704L1789.56,196.254L1791.34,199.844L1793.84,202.562L1800.72,208.457L1806.51,211.65L1812.13,214.99L1815.72,216.859L1818.91,218.25L1825.11,220.79L1828.76,222.999L1831.03,226.514L1837.89,236.578L1839.65,242.89L1839.13,247.967L1836.62,257.669L1835.39,261.373L1809.86,297.446L1775.76,312.713L1761.22,301.455L1765.46,292.991L1767.05,285.96L1772.83,282.876L1782.12,277.664L1787.83,273.361L1795.91,267.88L1804.67,253.215L1796.46,243.489L1778.46,234.347L1761.96,224.123L1751.09,224.504L1750.81,230.199L1751.82,237.915L1753.25,254.763L1752.18,262.367L1739.47,279.378L1718.58,276.075L1714.19,269.373L1709.27,275.522L1705.76,283.31L1701.61,290.359L1696.21,297.05L1686.93,299.704L1683.24,289.086L1675.39,264.655L1668.86,265.055L1665.98,270.391L1664.88,280.884L1662.89,284.94L1659.82,290.131L1645.92,307.323L1628.17,312.057L1603.74,304.327L1595.28,295.326L1587.88,289.868L1583.59,293.862L1579.33,300.634L1575.49,309.755L1538.92,325.488L1526.43,323.842L1514.03,316.727L1515.56,307.839L1516.77,300.133L1517.94,297.886L1521.06,295.84L1525.29,293.689L1538.56,288.33L1538.67,274.561L1528.23,269.505L1517.93,260.868L1511.37,254.004L1505.11,254.916L1502.84,263.732L1501.62,271.566L1499.03,281.806L1471.03,299.074L1457.56,298.343L1456.25,308.737L1456.68,314.34L1456.82,323.427L1455.59,328.095L1448.78,331.939L1434.82,329.598L1432.6,321.082L1424.03,304.25L1417.39,301.55L1405.42,308.058L1403.92,312.504L1403.3,321.86L1404.61,336.878L1403.66,342.716L1397.14,353.722L1385.18,353.69L1381.53,346.63L1377.65,317.348L1376.64,302.723L1367.72,305.981L1365.22,311.258L1363.02,313.987L1361.91,317.65L1358.57,324.03L1337.25,322.132L1331.35,312.134L1326.1,297.884L1325.77,309.755L1326.49,321.307L1326.32,333.994L1325.65,344.992L1324.16,351.298L1319.54,357.399L1311.16,357.056L1297.49,354.208L1276,354.889L1274.55,359.614L1273.27,367.176L1271.24,372.723L1267.52,375.922L1252.56,380.35L1247.72,375.338L1240.49,354.268L1235.17,265.614ZM1640.12,274.81L1639.59,279.342L1636.07,280.875L1629.22,282.751L1619.86,283.092L1617.72,277.4L1617.61,264.19L1620.51,256.066L1626.05,254.558L1630.35,258.919L1635.49,265.914L1640.12,274.81ZM1461.72,241.498L1470.98,251.142L1469.85,261.24L1465.79,263.276L1456.04,265.914L1453.36,265.794L1451.67,265.307L1451.24,261.271L1451.86,256.559L1453.74,237.922L1457.41,237.459L1461.72,241.498Z" style="fill:rgb(242,242,242);stroke:black;stroke-width:0.75px;"/>
                </g>
                <g id="The_Simpsons_Title.jpg" transform="matrix(1,0,0,1,142.917,163.715)">
                    <path d="M489.07,180.498C484.055,182.091 480.908,183.952 472.712,190.165C470.103,192.143 465.3,195.759 462.039,198.198C458.161,201.1 455.526,203.787 454.423,205.964C453.495,207.795 452.5,209.476 452.213,209.699C450.962,210.669 442.795,229.439 440.222,237.254C438.178,243.463 437.277,247.877 436.944,253.322C436.604,258.865 436.196,260.829 435.385,260.829C434.782,260.829 434.287,260.676 434.287,260.489C434.287,260.302 433.749,258.02 433.091,255.417C432.433,252.814 430.977,244.293 429.855,236.481C428.734,228.67 427.11,219.365 426.249,215.804C424.902,210.234 424.225,208.903 421.401,206.268C418.43,203.497 417.695,203.206 413.661,203.206C411.21,203.206 408.247,203.643 407.076,204.176C404.87,205.181 402.635,208.607 402.635,210.984C402.635,211.734 401.345,213.565 399.768,215.052C392.971,221.461 392.08,229.089 396.647,241.757C398.257,246.221 400.619,252.795 401.898,256.366C404.597,263.902 405.116,271.688 402.974,272.511C399.628,273.795 394.689,272.28 394.468,269.902C393.263,256.908 393.053,255.826 391.391,254.057C389.989,252.563 389.646,251.187 389.63,246.98C389.61,241.698 389.081,238.532 386.697,229.439C385.501,224.876 384.982,224.129 380.922,221.12C373.25,215.438 369.373,217.081 366.04,227.431C365.012,230.623 363.744,233.235 363.222,233.235C362.701,233.235 361.352,233.961 360.225,234.847C358.421,236.266 358.139,237.192 357.866,242.598C357.537,249.111 356.854,250.243 353.235,250.266C352.178,250.273 350.112,251.334 348.644,252.622C347.051,254.021 343.569,255.668 340.015,256.703C336.738,257.658 332.116,259.399 329.746,260.571C325.797,262.524 325.327,262.594 324.139,261.406C323.268,260.535 322.664,257.869 322.3,253.286C321.694,245.655 319.993,242.278 315.898,240.582C313.068,239.41 310.573,240.473 304.083,245.615C301.819,247.409 298.436,249.535 296.564,250.34C292.041,252.286 290.434,255.483 289.867,263.67L289.417,270.163L285.359,271.178C283.128,271.736 276.554,272.548 270.751,272.981C259.021,273.856 257.186,274.264 251.081,277.358C246.206,279.828 244.767,282.083 243.16,289.763C242.349,293.639 242.285,295.7 242.915,297.606C244.191,301.463 252.079,309.149 256.881,311.214C262.132,313.474 275.731,314.25 285.243,312.836C294.771,311.418 295.986,312.03 296.704,318.603C297.904,329.583 300.398,345.027 301.617,349.033C302.321,351.345 304.318,355.434 306.054,358.119C310.027,364.267 313.347,365.54 320.211,363.544C326.123,361.825 332.898,355.22 334.885,349.238C336.645,343.938 336.164,334.982 333.58,324.945C332.465,320.615 331.769,315.335 331.712,310.765L331.62,303.484L334.461,303C336.023,302.734 339.822,301.171 342.902,299.527C351.678,294.845 353.331,295.534 355.191,304.655C356.634,311.732 358.359,314.494 361.986,315.533C363.42,315.944 365.795,317.484 367.265,318.953C370.021,321.71 371.144,324.85 373.764,337.126C374.48,340.478 375.754,344.354 376.597,345.739C378.85,349.445 384.176,351.726 390.576,351.726C395.116,351.726 396.119,351.45 397.705,349.762C398.821,348.574 399.639,346.567 399.773,344.689C399.895,342.98 400.772,340.047 401.72,338.171C403.917,333.831 403.924,329.183 401.752,318.065C400.82,313.296 400.211,309.241 400.398,309.054C400.584,308.868 402.97,308.481 405.701,308.197C411.395,307.602 410.762,306.647 412.244,318.045C412.731,321.791 414.443,328.128 416.288,333.021C419.062,340.377 419.848,341.698 422.208,342.963C430.277,347.29 443.77,340.642 446.467,331.008C447.431,327.565 447.4,326.842 446.198,324.747C445.264,323.122 444.99,321.435 445.32,319.367C445.887,315.821 444.702,310.836 441.833,304.694C438.98,298.588 437.863,291.409 439.079,287.001C440.518,281.783 442.579,282.303 444.409,288.346C445.595,292.262 446.771,294.028 450.827,297.972C462.712,309.532 472.225,316.177 481.358,319.298C486.015,320.89 488.345,321.107 501.242,321.146C515.063,321.188 516.2,321.072 522.318,318.988C533.176,315.291 550.938,302.058 558.098,292.332C561.601,287.574 564.141,281.217 564.141,277.208C564.141,276.113 563.736,273.865 563.24,272.212C562.509,269.771 562.581,268.739 563.623,266.725C564.329,265.36 565.148,262.725 565.445,260.869C565.919,257.905 565.713,257.21 563.75,255.162C560.615,251.889 554.119,249.219 550.972,249.911C547.905,250.585 542.258,256.26 540.271,260.665C539.288,262.845 538.112,264.116 536.762,264.455C535.645,264.735 531.397,267.448 527.32,270.483C523.243,273.519 518.759,276.595 517.356,277.319C513.903,279.101 508.14,280.001 508.14,278.758C508.14,278.24 511.416,274.668 515.419,270.821C521.11,265.352 523.437,262.404 526.089,257.307C530.636,248.566 530.97,246.63 529.676,236.513C529.074,231.807 528.161,223.941 527.648,219.03C526.611,209.116 525.101,203.037 522.285,197.436C519.29,191.479 516.938,189.258 507.955,183.896C498.51,178.258 496.976,177.982 489.069,180.496L489.07,180.498ZM502.315,182.92C504.244,183.795 506.726,185.223 507.832,186.093C508.937,186.963 510.833,187.892 512.045,188.157C513.84,188.552 514.955,190.023 518.082,196.126C522.35,204.457 523.334,208.433 524.353,221.467L525.051,230.394L522.684,234.262C521.382,236.389 520.317,238.489 520.317,238.928C520.317,239.368 519.952,239.728 519.506,239.728C519.059,239.728 518.694,240.211 518.694,240.801C518.694,242.279 511.095,253.253 507.467,257.015C500.812,263.912 492.027,268.083 484.067,268.122C481.992,268.132 481.353,268.563 480.755,270.357C479.905,272.909 481.402,278.923 483.452,281.188C487.097,285.215 502.146,288.076 508.652,285.979C512.099,284.868 519.697,279.685 524.782,274.979C526.568,273.325 531.315,270.409 535.333,268.496C540.064,266.243 542.952,264.352 543.531,263.127C548.113,253.428 549.691,252.415 556.57,254.753L560.898,256.224L560.891,260.76C560.88,267.114 557.828,272.076 549.042,280.02C545.164,283.526 539.535,288.861 536.535,291.874C533.534,294.887 530.693,297.353 530.22,297.353C529.747,297.353 526.948,298.469 524.001,299.833C514.015,304.455 512.416,304.809 500.083,305.119C485.813,305.478 484.47,305.014 474.737,296.361C471.015,293.052 466.992,289.706 465.797,288.924C463.562,287.464 462.657,285.13 459.775,273.411C459.006,270.287 457.112,265.423 455.566,262.602C452.881,257.705 452.772,257.191 453.169,251.239C453.398,247.811 454.333,242.748 455.248,239.988C456.162,237.228 457.271,233.028 457.712,230.654C458.462,226.606 463.399,214.836 469.687,202.101C472.234,196.944 477.672,189.496 480.547,187.231C484.218,184.339 491.948,181.631 497.188,181.401C498.08,181.362 500.389,182.046 502.317,182.921L502.315,182.92ZM417.55,206.765C422.011,208.629 423.513,214.296 426.507,240.565C427.196,246.605 428.46,253.583 429.316,256.072C431.078,261.193 434.64,267.219 436.819,268.766C439.384,270.587 439.482,274.544 437.117,280.744C434.189,288.42 434.601,294.907 438.66,305.039C440.292,309.11 441.67,314.069 441.787,316.287C441.972,319.773 441.731,320.457 439.799,321.922C438.436,322.955 435.922,323.729 433.184,323.956C429.226,324.284 428.635,324.122 427.51,322.403C426.818,321.347 426.001,318.839 425.693,316.83C425.384,314.822 424.453,311.824 423.625,310.17C422.447,307.82 420.614,299.25 420.506,295.588C420.466,294.2 416.118,290.048 414.704,290.048C413.834,290.048 411.689,290.778 409.939,291.671C408.19,292.564 405.629,293.294 404.25,293.294C395.723,293.294 393.416,300.503 397.369,314.796C399.583,322.796 400.003,331.388 398.343,334.685C397.157,337.042 393.877,337.723 390.482,336.318C387.825,335.217 386.902,333.469 385.586,327.043C384.373,321.12 382.109,313.954 379.364,307.35C377.384,302.584 377.02,302.209 372.102,299.86C366.361,297.117 366.147,296.667 367.308,289.785C367.681,287.577 369.104,285.299 372.247,281.88L376.663,277.077L376.663,270.651C376.663,266.907 375.625,258.693 374.175,250.963C372.807,243.668 371.286,235.499 370.795,232.81C369.599,226.255 370.33,223.687 373.806,222.235C377.167,220.83 378.945,221.392 379.618,224.071C379.897,225.182 381.254,228.336 382.634,231.084C384.722,235.237 385.172,237.15 385.313,242.452C385.407,245.958 386.01,250.158 386.656,251.786C387.301,253.413 388.264,257.483 388.797,260.831C390.561,271.932 392.242,274.68 397.919,275.745C402.002,276.511 411.259,273.501 414.069,270.494L416.264,268.143L414.674,263.067C412.615,256.493 411.907,252.762 409.545,236.077C408.471,228.489 407.047,219.724 406.38,216.599C404.953,209.912 405.736,207.822 410.146,206.549C413.851,205.479 414.517,205.499 417.549,206.766L417.55,206.765ZM315.632,244.761C316.168,245.296 316.606,246.501 316.606,247.439C316.606,248.376 316.972,249.509 317.42,249.957C317.867,250.404 318.57,253.45 318.981,256.724C319.425,260.256 320.261,263.21 321.037,263.986C322.948,265.896 330.007,265.705 334.056,263.633C338.615,261.3 348.504,255.844 349.476,255.125C349.923,254.794 351.479,254.27 352.935,253.958C355.456,253.419 355.659,253.56 357.178,256.908C358.056,258.843 358.782,262.202 358.792,264.374C358.806,267.623 358.307,269.007 355.975,272.185C351.183,278.712 341.475,285.141 332.3,287.864C322.971,290.631 321.634,293.545 325.093,303.562C327.816,311.449 328.452,314.827 330.379,331.651C332.027,346.044 331.735,349.574 328.82,350.499C328.023,350.753 326.718,351.68 325.921,352.562C324.062,354.616 322.236,354.59 319.541,352.469C315.88,349.59 314.808,346.388 314.102,336.226C313.493,327.465 310.443,310.108 308.218,302.75C306.351,296.571 300.767,294.799 288.365,296.449C284.481,296.965 277.467,297.453 272.781,297.532C265.396,297.657 263.825,297.44 261.012,295.91C254.809,292.534 254.645,292.279 255.145,286.771C255.412,283.823 256.144,281.205 256.95,280.314C258.899,278.161 264.247,277.127 277.795,276.282C290.951,275.462 295.646,274.404 298.887,271.53C302.124,268.66 303.108,265.688 302.065,261.933C300.316,255.632 301.6,249.469 304.663,249.469C305.098,249.469 306.868,248.19 308.598,246.628C311.874,243.668 313.98,243.109 315.633,244.761L315.632,244.761ZM493.517,202.632C488.447,205.06 482.323,212.193 480.792,217.454C477.765,227.858 475.096,239.941 475.254,242.53C475.466,246.037 477.538,248.422 480.957,249.094C482.917,249.48 484.724,248.775 490.288,245.451C494.082,243.184 497.671,241.06 498.263,240.732C498.856,240.403 499.993,238.308 500.793,236.076C501.592,233.844 503.234,229.883 504.442,227.274C505.649,224.665 507.036,220.629 507.523,218.305C508.333,214.447 508.229,213.684 506.323,209.523C503.368,203.069 498.3,200.342 493.517,202.632ZM495.766,229.638C499.207,231.045 499.519,234.401 496.286,235.213C495.121,235.505 492.256,237.554 489.917,239.764C485.464,243.976 483.835,244.572 482.192,242.592C481.396,241.633 481.525,240.99 482.854,239.299C483.762,238.144 485.105,235.396 485.837,233.192C487.771,227.368 489.076,226.901 495.765,229.637L495.766,229.638ZM813.709,304.66C793.938,307.654 773.726,323.263 762.749,344.018C762.041,345.357 759.704,352.015 757.556,358.814C755.351,365.795 753.22,371.182 752.662,371.191C752.118,371.199 750.121,369.106 748.223,366.54C740.339,355.876 734.278,349.227 729.584,346.093C726.873,344.283 723.96,342.801 723.111,342.801C719.882,342.801 716.224,347.727 713.507,355.734C712.077,359.946 709.477,366.238 707.728,369.716C705.979,373.194 704.548,376.724 704.548,377.56C704.548,380.007 708.898,385.321 714.312,389.486C717.254,391.75 719.805,394.472 720.464,396.051C721.793,399.23 721.966,406.59 720.731,407.353C720.257,407.646 718.157,407.151 716.064,406.254C713.971,405.356 710.828,404.356 709.081,404.031C707.334,403.705 704.594,402.551 702.994,401.465C699.52,399.107 698.106,399.283 689.82,403.097C686.538,404.608 682.908,406.077 681.753,406.363C677.194,407.489 672.976,412.454 670.078,420.106C669.275,422.227 668.152,423.961 667.582,423.961C667.013,423.961 665.554,421.43 664.34,418.336C663.126,415.242 661.073,411.423 659.776,409.851C656.127,405.423 647.981,401.853 637.591,400.126C632.781,399.327 630.018,398.463 627.631,397.013C625.374,395.643 623.845,395.441 617.486,395.68C601.98,396.262 594.862,403.31 587.985,424.887C583.981,437.454 582.822,440.192 581.508,440.192C580.889,440.192 576.089,436.708 570.843,432.449C564.275,427.119 560.429,423.326 558.501,420.278C556.961,417.843 555.044,415.642 554.241,415.386C552.623,414.873 552.336,412.508 553.605,410.136C554.065,409.277 556.289,408.042 558.628,407.348C560.936,406.662 564.308,405.384 566.121,404.508C567.935,403.631 572.893,402.012 577.142,400.909C586.974,398.357 589.077,397.542 592.433,394.981C594.919,393.085 595.127,392.605 594.734,389.671C594.477,387.755 593.451,385.558 592.208,384.26C590.041,381.998 589.25,376.706 590.925,375.67C594.545,373.433 584.121,356.48 577.384,353.648C574.1,352.269 568.298,353.264 562.499,356.202C557.616,358.677 541.548,369.491 537.019,373.351C535.269,374.843 531.851,376.806 529.424,377.715C526.997,378.623 523.454,380.437 521.552,381.746C513.866,387.034 506.439,397.837 505.176,405.566C504.896,407.279 504.18,408.866 503.586,409.094C502.325,409.578 501.664,408.942 496.844,402.602C491.259,395.258 482.891,387.987 476.24,384.701C471.327,382.273 469.4,381.757 465.246,381.757C456.313,381.757 447.413,385.633 434.218,395.269C426.666,400.784 423.866,404.19 420.854,411.514C418.052,418.327 418.1,430.108 420.983,443.53C422.523,450.701 422.88,453.85 422.3,455.125C421.862,456.087 419.358,457.917 416.737,459.192C414.115,460.467 411.001,462.192 409.816,463.025C408.631,463.857 407.119,464.539 406.456,464.539C404.469,464.539 401.783,457.52 400.906,450.038C398.692,431.144 398.124,428.859 394.785,425.408C391.038,421.534 386.948,419.317 382.219,418.595C380.281,418.298 378.243,417.7 377.691,417.265C375.859,415.821 372.998,417.361 370.67,421.044C367.143,426.625 365.697,427.691 363.355,426.438C361.671,425.537 361.106,425.639 358.957,427.227C356.23,429.243 351.944,437.286 351.074,442.017C350.087,447.388 347.675,445.696 343.564,436.753C340.273,429.592 338.218,427.679 331.637,425.646C320.489,422.202 313.945,423.834 309.704,431.116C306.638,436.38 305.846,436.916 301.107,436.932C296.969,436.946 292.147,439.794 289.549,443.76C285.652,449.706 283.341,467.18 283.318,490.854C283.305,505.034 282.348,520.171 281.405,521.114C281.194,521.326 280.241,521.251 279.287,520.948C277.793,520.474 277.644,520.043 278.212,517.831C279.484,512.864 278.936,493.737 277.373,488.587C275.543,482.557 275.179,480.43 274.439,471.437C273.896,464.846 273.397,463.22 269.331,454.799C266.853,449.666 264.59,444.666 264.302,443.69C263.547,441.132 258.722,437.173 255.153,436.182C248.741,434.401 243.852,435.405 241.99,438.883C241.126,440.498 240.231,441.003 238.227,441.003C234.264,441.003 226.89,447.276 225.558,451.781C223.8,457.723 224.314,468.169 226.705,475.09C229.021,481.795 228.916,481.274 231.759,500.249C234.319,517.336 235,527.799 234.26,538.661C233.727,546.473 233.516,547.322 232.103,547.322C230.822,547.322 217.748,540.139 214.753,537.789C212.377,535.925 198.575,530.232 193.681,529.097C186.846,527.512 176.838,523.568 163.229,517.099C149.324,510.489 138.719,506.128 132.025,504.268C128.93,503.409 126.191,502.384 125.938,501.99C125.684,501.597 123.286,500.649 120.608,499.883C111.265,497.212 102.461,492.074 78.852,475.516C76.456,473.835 75.018,472.122 74.577,470.422C74.077,468.492 72.813,467.201 69.46,465.196L65.007,462.532L65.487,454.811C66.061,445.582 67.473,440.625 71.385,434.104C77.166,424.463 92.054,412.37 101.535,409.612C103.99,408.898 108.738,406.795 112.086,404.94C115.434,403.084 119.152,401.034 120.349,400.385C121.545,399.736 124.716,397.824 127.395,396.136C132.857,392.695 142.255,389.08 150.691,387.176C160.43,384.978 175.367,383.309 177.082,384.227C178.952,385.228 180.578,388.245 181.873,393.118C182.407,395.127 183.554,397.931 184.424,399.35C186.286,402.393 193.199,406.103 197.005,406.103C204.812,406.103 219.768,400.697 221.64,397.199C222.287,395.99 222.26,394.258 221.541,390.776C220.641,386.419 220.709,385.657 222.322,381.906C223.293,379.649 224.087,376.239 224.087,374.328C224.087,368.826 220.821,354.894 218.657,351.164C214.747,344.424 207.604,338.442 200.957,336.34C199.171,335.775 196.98,334.863 196.087,334.314C192.196,331.916 183.408,329.037 178.419,328.526C175.443,328.221 167.06,328.435 159.793,329.003C148.979,329.847 145.327,330.472 139.681,332.445C120.775,339.053 101.629,350.165 80.029,367.066C68.319,376.229 47.971,393.235 47.971,393.858C47.971,394.214 44.805,398.12 40.935,402.536C36.958,407.076 33.02,412.509 31.879,415.031C30.767,417.486 28.776,420.745 27.452,422.274C22.267,428.265 19.627,435.684 15.496,455.876C11.287,476.453 22.085,497.741 44.47,512.99C52.056,518.158 66.288,526.213 76.376,531.049C79.724,532.654 84.654,535.4 87.332,537.152C90.011,538.903 97.863,542.859 104.782,545.942C111.701,549.026 117.483,551.875 117.632,552.275C117.78,552.675 118.306,553.003 118.8,553.003C119.295,553.003 122.095,554.436 125.023,556.188C128.745,558.414 133.645,560.264 141.304,562.333C160.686,567.571 166.74,569.375 173.159,571.823C178.583,573.892 179.449,574.489 179.449,576.164C179.449,577.232 178.81,578.445 178.028,578.861C176.348,579.756 158.402,582.559 145.767,583.901C140.857,584.423 135.014,585.584 132.782,586.482C122.778,590.509 110.581,591.365 97.883,588.93C93.866,588.16 88.723,587.522 86.453,587.512C81.007,587.49 74.685,590.427 69.477,595.399C67.082,597.686 64.125,599.629 62.261,600.142C58.494,601.179 51.459,607.907 49.269,612.565C47.387,616.571 47.795,619.731 51.272,628.088C56.039,639.541 59.322,641.454 81.245,645.556C87.937,646.808 105.731,646.398 118.266,644.701C124.91,643.802 130.894,642.903 131.564,642.702C136.103,641.345 159.004,639.762 167.274,640.235C182.861,641.127 192.018,638.181 209.606,626.617C226.341,615.612 233.825,606.03 233.825,595.607C233.825,591.614 234.157,590.286 235.451,589.115C237.231,587.504 238.263,584.205 239.129,577.35C240.121,569.496 241.871,568.376 247.436,572.036C251.032,574.401 259.966,576.044 263.489,574.99C267.833,573.689 268.632,573.173 270.304,570.582C271.215,569.172 272.709,566.921 273.625,565.582C274.836,563.809 275.171,562.358 274.859,560.243C274.498,557.802 274.801,556.983 276.764,555.104C278.279,553.652 279.574,551.111 280.456,547.863C282.771,539.325 283.429,537.582 284.332,537.582C284.812,537.582 288.569,541.143 292.678,545.495L300.148,553.408L308.199,554.914C315.535,556.285 316.514,556.309 319.22,555.179C323.169,553.529 327.685,546.714 329.04,540.359C329.604,537.715 330.871,534.275 331.855,532.712C333.175,530.619 333.646,528.617 333.648,525.096C333.651,519.651 335.084,514.068 336.63,513.474C337.206,513.253 338.587,514.153 339.699,515.474C341.059,517.091 343.784,518.609 348.028,520.116L354.335,522.355L357.925,520.451C362.507,518.021 365.564,513.245 368.262,504.307C369.407,500.512 370.759,496.038 371.268,494.365C371.776,492.69 372.615,491.321 373.132,491.321C373.805,491.321 374.174,496.342 374.431,508.973C374.828,528.52 375.491,532.004 380.123,538.905C382.094,541.841 384.075,543.507 388.029,545.554C392.689,547.966 393.872,548.245 398.174,547.947C403.694,547.565 409.039,544.709 409.096,542.109C409.115,541.251 409.77,539.842 410.551,538.978C411.989,537.387 412.055,536.55 412.554,513.639C412.622,510.514 412.552,505.036 412.398,501.465C412.244,497.894 412.388,493.786 412.718,492.335C413.289,489.82 413.494,489.697 417.108,489.7C421.802,489.704 425.77,491.976 427.369,495.575C428.015,497.029 429.1,501.94 429.78,506.489C430.461,511.038 431.594,516.199 432.297,517.958C433.618,521.259 438.28,525.617 442.01,527.034C447.836,529.249 456.463,527.009 460.477,522.237C464.029,518.016 465.13,512.708 465.13,499.807L465.13,488.299L469.138,487.825C472.591,487.416 478.515,485.358 488.26,481.181C489.599,480.607 491.587,479.868 492.677,479.537C493.767,479.207 496.409,477.553 498.549,475.862C500.688,474.17 503.503,472.553 504.802,472.268C507.676,471.637 509.282,469.955 511.047,465.73C512.175,463.032 512.297,460.865 511.816,452.166C511.405,444.745 511.5,441.812 512.149,441.812C512.647,441.812 515.357,443.912 518.172,446.479C525.715,453.357 526.203,453.68 530.854,454.872C535.769,456.132 537.126,457.727 537.864,463.114L538.378,466.861L531.579,470.215C524.59,473.664 521.128,476.24 521.128,477.991C521.128,478.541 519.52,479.933 517.553,481.085C513.448,483.491 509.646,487.982 508.138,492.206C507.317,494.505 507.293,496.445 508.023,501.348C509.967,514.421 514.286,517.199 533.737,517.889C543.717,518.244 545.925,518.075 551.558,516.53C557.812,514.814 566.059,510.536 568.287,507.852C568.892,507.122 572.316,504.307 575.896,501.596C586.794,493.343 590.115,488.756 590.115,481.957C590.115,478.919 590.366,478.262 591.448,478.475C592.182,478.62 593.186,479.448 593.68,480.317C594.174,481.185 594.855,482.281 595.194,482.751C601.558,491.611 603.459,493.677 608.781,497.525C619.131,505.008 625.745,505.827 639.216,501.292C645.414,499.207 649.129,496.775 655.328,490.748C656.601,489.51 659.693,484.293 662.198,479.154C664.704,474.015 668.119,467.681 669.786,465.079C671.586,462.27 673.044,458.808 673.374,456.557C674.138,451.349 675.075,449.113 676.493,449.113C678.196,449.113 679.054,454.057 678.605,461.287C678.398,464.635 678.215,470.844 678.2,475.084C678.17,483.737 679.558,487.207 684.127,489.896C687.277,491.75 689.266,491.687 693.424,489.604C698.142,487.239 701.128,484.248 701.753,481.26C702.044,479.872 703.5,477.458 704.991,475.896C706.482,474.334 709.511,469.768 711.723,465.751C714.424,460.844 716.272,458.365 717.356,458.2C718.527,458.02 720.649,459.919 725.111,465.135C728.489,469.085 732.92,473.514 734.957,474.977C738.323,477.394 738.906,477.556 741.338,476.754C745.091,475.515 749.227,470.892 753.308,463.371C755.229,459.831 757.785,455.814 758.987,454.444C764.141,448.57 765.573,439.632 763.415,426.794C762.664,422.33 761.53,416.877 760.895,414.676C759.308,409.179 759.406,407.722 761.362,407.722C762.255,407.722 762.986,408.102 762.986,408.568C762.986,409.034 764.718,411.267 766.836,413.531C769.731,416.627 773.017,418.816 780.092,422.362C785.265,424.955 790.67,428.064 792.103,429.27C797.564,433.865 799.493,442.002 796.345,447.164C794.48,450.222 785.287,456.78 779.875,458.913C774.087,461.195 772.099,462.728 771.132,465.658C770.492,467.598 769.493,468.554 767.259,469.362C763.583,470.691 760.489,473.681 758.251,478.065C756.154,482.175 756.783,485.055 761.159,491.38C768.454,501.925 784.618,503.774 800.402,495.871C819.685,486.215 834.199,473.801 840.006,461.994C843.91,454.057 844.989,449.093 844.395,441.809C844.06,437.7 844.344,435.462 845.678,431.692C848.822,422.81 847.678,413.625 842.908,409.437C841.356,408.075 840.087,406.246 840.087,405.374C840.087,401.959 836.206,398.901 829.14,396.745C823.04,394.884 818.81,392.607 817.172,390.3C816.844,389.838 816.57,389.746 816.563,390.094C816.548,390.836 808.32,385.698 804.783,382.739C798.584,377.554 797.096,372.604 800.726,369.241C803.296,366.859 815.327,359.837 816.839,359.837C818.531,359.837 819.567,361.446 820.655,365.771C821.855,370.538 824.946,373.133 832.06,375.347C836.876,376.846 837.179,376.851 839.99,375.473C841.809,374.581 844.268,372.084 846.505,368.859C849.677,364.286 850.123,363.096 850.308,358.714C850.458,355.167 850.164,353.359 849.277,352.377C848.156,351.137 848.251,350.567 850.258,346.464C852.787,341.295 852.755,339.955 849.736,324.463L847.982,315.464L843.902,312.694C841.658,311.171 839.419,309.527 838.927,309.041C838.434,308.556 835.601,307.186 832.63,305.998C826.978,303.737 822.071,303.389 813.709,304.654L813.709,304.66ZM838.652,311.466C843.885,314.018 845.215,317.338 847.303,333.061C847.748,336.409 848.354,339.958 848.65,340.949C849.055,342.304 848.58,343.36 846.728,345.21C844.532,347.406 843.742,347.67 839.365,347.67C835.525,347.67 834.296,347.362 833.702,346.25C833.284,345.469 832.952,344.647 832.965,344.424C833.114,341.918 831.515,335.179 830.298,333.177C828.11,329.577 824.676,329.747 816.268,333.872C809.203,337.339 805.006,340.809 801.251,346.29C796.424,353.338 795.459,356.166 794.713,365.451C794.321,370.332 793.761,374.712 793.47,375.183C792.812,376.246 800.012,383.203 805.999,387.289C808.454,388.965 815.454,392.845 821.556,395.912L832.649,401.489L838.099,409.468C844.672,419.094 845.408,421.943 843.347,429.794C841.192,438.006 836.03,446.322 827.989,454.539C816.832,465.941 809.911,471.82 807.623,471.839C806.507,471.848 801.966,473.679 797.531,475.907C789.03,480.179 784.721,480.944 779.473,479.115C775.185,477.62 772.812,469.526 775.527,465.65C776.176,464.724 779.769,462.456 783.512,460.61C787.255,458.765 791.468,456.155 792.875,454.81C794.282,453.465 795.985,452.364 796.659,452.364C797.332,452.364 797.883,451.999 797.883,451.553C797.883,451.106 798.4,450.741 799.033,450.741C799.665,450.741 802.992,448.862 806.425,446.566C813.619,441.754 819.796,434.249 819.796,430.32C819.796,424.572 812.992,418.389 803.97,415.939C802.185,415.455 798.599,413.317 796.003,411.189C788.687,405.194 783.861,402.045 781.99,402.045C779.859,402.045 778.491,400.426 775.814,394.74C770.293,383.012 769.413,375.867 771.827,362.339C773.129,355.039 774.259,351.502 777.141,345.701C782.09,335.742 790.27,325.868 798.118,320.376C799.951,319.094 802.931,316.541 804.74,314.704C809.879,309.485 810.005,309.452 823.449,309.731C833.206,309.934 836.224,310.278 838.653,311.462L838.652,311.466ZM174.577,333.529C182.277,333.988 184.232,334.464 194.866,338.467C201.339,340.903 207.365,343.372 208.258,343.953C210.739,345.569 215.171,350.27 216.353,352.539C217.582,354.9 220.838,370.328 220.838,373.794C220.838,379.088 216.964,382.568 211.071,382.568C208.309,382.568 206.857,380.427 205.547,374.423C204.372,369.033 201.479,365.524 198.21,365.524C196.96,365.524 193.049,364.781 189.518,363.872C182.974,362.188 170.889,361.608 164.388,362.666C155.466,364.118 145.422,366.812 140.084,369.185C138.745,369.78 135.64,371.032 133.185,371.967C130.73,372.902 122.712,376.674 115.366,380.349C104.683,385.694 101.048,387.96 97.203,391.676C94.559,394.231 90.8,397.061 88.849,397.966C86.897,398.87 83.566,400.406 81.446,401.379C75.538,404.09 72.379,406.827 69.72,411.539C68.384,413.906 67.006,415.843 66.659,415.843C66.31,415.843 64.367,417.433 62.339,419.375C57.877,423.65 56.148,428.542 55.501,438.73C55.071,445.497 55.18,446.117 58.117,453.537C59.802,457.796 61.678,461.694 62.285,462.198C62.892,462.702 63.389,463.544 63.389,464.07C63.389,464.596 65.022,466.059 67.019,467.321C69.016,468.583 70.839,470.208 71.072,470.932C71.915,473.562 79.682,480.707 86.671,485.284C90.605,487.86 95.856,491.552 98.339,493.486C100.821,495.42 103.246,497.002 103.727,497.002C104.209,497.002 107.108,498.24 110.17,499.752C113.232,501.265 117.564,503.044 119.795,503.706C122.027,504.368 127.345,506.396 131.611,508.212C135.879,510.028 146.835,514.301 155.959,517.708C189.864,530.368 207.846,537.787 218.615,543.563C226.342,547.707 227.295,548.363 227.771,549.86C228.002,550.589 229.258,551.399 230.561,551.659C232.662,552.08 233.119,552.746 234.595,557.522C237.117,565.688 236.755,577.915 233.804,584.248C233.387,585.141 232.716,586.79 232.311,587.914C231.213,590.959 225.14,598.328 222.308,600.05C220.944,600.879 217.043,602.519 213.638,603.694C205.666,606.444 201.747,608.547 197.628,612.285C194.108,615.477 192.954,615.789 176.791,617.91C173.32,618.365 168.39,619.608 165.834,620.672C161.247,622.583 160.82,622.608 132.781,622.656C96.759,622.718 84.275,621.494 75.436,617.036C71.425,615.012 69.714,610.527 70.044,602.893L70.288,597.234L75.158,594.799C80.541,592.107 77.416,592.28 109.245,592.916C121.548,593.162 122.552,593.063 128.351,591.031C132.224,589.674 137.888,588.548 143.772,587.963C168.52,585.502 174.237,584.306 179.63,580.466C181.715,578.982 183.538,578.59 189.541,578.337C198.127,577.976 205.515,575.84 211.734,571.922C215.365,569.634 215.898,568.993 215.222,567.73C213.988,565.425 209.362,562.248 206.395,561.667C203.559,561.112 198.477,557.871 194.491,554.076C191.108,550.855 185.889,547.656 183.173,547.136C181.906,546.894 179.679,547.025 178.223,547.427C175.944,548.056 174.519,547.663 167.976,544.599C163.796,542.642 158.55,540.406 156.318,539.631C154.086,538.856 151.53,537.906 150.637,537.52C149.744,537.133 141.344,534.272 131.97,531.159C111.353,524.314 106.666,522.3 103.158,518.78C97.903,513.507 95.856,512.422 91.157,512.422C87.371,512.422 86.066,511.956 81.575,509.003C78.715,507.123 76.375,505.335 76.375,505.03C76.375,504.239 69.055,499.723 66.636,499.021C65.52,498.698 64.026,497.924 63.315,497.302C62.605,496.68 59.318,494.775 56.011,493.069C52.194,491.1 49.553,489.146 48.781,487.719C48.111,486.482 46.65,484.469 45.534,483.245C44.418,482.021 42.227,478.734 40.665,475.94C39.103,473.147 36.787,469.627 35.519,468.118C30.224,461.814 28.857,452.47 31.353,439.652C32.035,436.154 32.608,431.1 32.627,428.422C32.667,422.625 34.602,418.82 41.106,411.746C43.463,409.182 46.687,404.397 48.269,401.115C49.85,397.832 52.348,394.027 53.818,392.659C58.387,388.41 65.293,382.32 69.866,378.508C72.277,376.5 75.798,373.527 77.692,371.903C85.458,365.243 106.322,351.402 116.144,346.393C131.454,338.588 155.117,331.691 163.217,332.674C164.779,332.864 169.892,333.248 174.579,333.527L174.577,333.529ZM735.35,355.596C739.457,360.253 739.338,360.088 742.244,365.119C743.532,367.351 745.477,370.356 746.564,371.796C748.007,373.709 749.049,377.103 750.425,384.376C751.462,389.854 753.138,397.988 754.152,402.452C755.581,408.748 756,413.117 756.021,421.93C756.047,432.971 755.977,433.442 753.544,438.568C750.954,444.025 746.12,449.564 742.845,450.829C736.398,453.317 727.287,449.702 718.402,441.133C716.759,439.548 715.413,441.598 714.286,447.4C712.205,458.124 709.029,464.93 703.552,470.407C701.195,472.765 699.849,473.467 697.689,473.467C695.166,473.467 694.836,473.202 694.4,470.829C693.802,467.571 693.04,449.186 692.892,434.434C692.825,427.735 692.427,422.952 691.88,422.26C689.575,419.345 690.497,409.36 693.428,405.496C694.562,404.001 697.654,404.259 700.675,406.101C702.137,406.992 704.656,407.723 706.274,407.724C712.845,407.731 714.485,408.559 720.782,415.045C729.394,423.916 733.141,425.593 736.759,422.194C738.905,420.178 739.012,418.87 737.672,411.055C736.99,407.08 736.955,404.869 737.553,403.532C739.276,399.676 731.926,382.404 726.213,376.886C723.262,374.036 722.428,372.659 722.418,370.617C722.407,368.54 721.905,367.742 719.981,366.748C717.089,365.252 716.126,362.214 717.416,358.649C717.927,357.233 718.349,355.554 718.351,354.916C718.353,354.278 718.729,352.41 719.186,350.765C719.852,348.37 720.457,347.721 722.225,347.513C725.206,347.161 731.125,350.808 735.35,355.597L735.35,355.596ZM580.795,360.205C584.162,362.773 585.852,366.472 586.19,372.011L586.462,376.469L581.806,378.947C579.246,380.311 574.133,382.465 570.444,383.734C566.755,385.004 562.824,386.662 561.708,387.42C560.592,388.177 559.078,389.013 558.345,389.277C557.611,389.54 555.99,391.152 554.744,392.858C553.497,394.564 551.208,397.083 549.656,398.456C546.853,400.935 546.841,400.976 547.779,404.699C548.298,406.761 548.722,410.119 548.722,412.164C548.722,415.397 549.17,416.376 552.172,419.691C556.581,424.563 565.235,432.815 569.418,436.136C575.626,441.065 581.128,447.727 582.484,451.96C583.917,456.428 584.936,470.934 584.123,475.268C583.578,478.172 578.17,484.529 573.07,488.26C566.625,492.974 552.572,497.208 539.794,498.285C534.313,498.748 533.483,498.621 531.455,497.014C528.42,494.611 526.794,490.475 526.094,483.382L525.51,477.471L528.133,475.471C529.576,474.37 535.245,471.974 540.731,470.147C552.717,466.154 556.381,464.37 558.156,461.66C559.414,459.74 559.402,459.433 557.966,456.71C555.184,451.441 547.677,444.435 541.932,441.746C537.919,439.868 535.886,438.289 533.768,435.404C530.121,430.435 525.33,422 523.811,417.873C520.748,409.555 521.151,398.84 524.755,392.714C526.033,390.541 529.611,386.565 534.101,382.094C541.583,374.642 551.596,365.814 557.713,361.667C564.357,357.162 575.852,356.435 580.796,360.207L580.795,360.205ZM474.15,387.579C480.929,390.317 493.472,401.123 494.712,405.293C495.043,406.409 497.27,410.791 499.659,415.032C504.023,422.776 506.172,429.333 505.274,432.161C505.009,432.997 505.363,434.497 506.062,435.494C508.146,438.469 507.631,442.525 504.314,449.288C501.957,454.091 500.678,455.773 498.809,456.532C497.47,457.076 494.036,458.573 491.179,459.86C482.891,463.59 474.155,466.306 467.16,467.325C461.572,468.14 460.532,468.548 459.665,470.26C458.233,473.091 458.393,476.929 460.327,486.12C463.133,499.449 461.538,504.187 453.831,505.419C448.125,506.332 447.605,505.683 442.454,491.262C441.087,487.435 439.969,483.73 439.969,483.029C439.969,482.328 438.909,480.619 437.614,479.232C435.531,477.002 434.744,476.711 430.782,476.711C424.797,476.711 423.737,476.205 423.737,473.346C423.737,472.037 422.984,469.492 422.066,467.69C421.147,465.888 420.507,463.449 420.645,462.269C420.914,459.976 421.264,459.743 430.789,455.549C433.998,454.136 436.772,452.567 436.953,452.063C437.135,451.558 436.942,447.858 436.525,443.841C435.593,434.872 436.197,421.491 437.892,413.549C439.254,407.164 443.746,395.551 444.852,395.551C445.45,395.551 446.662,394.393 451.946,388.77C454.151,386.424 456.106,385.918 463.195,385.863C468.167,385.824 470.854,386.244 474.151,387.576L474.15,387.579ZM632.316,401.852C637.822,404.346 641.169,405.292 644.489,405.292C648.924,405.292 656.756,411.562 660.203,417.872C662.438,421.964 666.476,432.128 668.585,438.973C671.183,447.408 670.991,457.381 668.124,462.962C666.277,466.555 658.891,474.347 653.332,478.564C648.275,482.401 627.218,485.413 621.209,483.16C617.758,481.865 610.634,474.481 607.548,468.998C606.039,466.318 604.238,461.95 603.546,459.291C602.132,453.862 601.867,445.415 603.089,444.66C603.53,444.387 604.9,442.448 606.132,440.351C608.342,436.591 608.374,436.345 608.374,422.741C608.374,409.376 608.437,408.849 610.403,405.904C611.519,404.232 613.071,402.655 613.852,402.4C614.633,402.145 615.273,401.623 615.273,401.239C615.273,399.076 627.129,399.503 632.316,401.852ZM385.663,422.835C392.444,424.961 393.268,426.537 396.044,442.68C398.699,458.119 399.982,462.681 403.44,468.974C406.192,473.98 407.256,480.877 407.891,497.815C408.151,504.733 408.541,512.22 408.76,514.452C409.121,518.134 408.873,518.923 406.099,522.96C401.165,530.138 395.926,530.403 392.723,523.634C391.05,520.097 390.918,517.922 391.68,506.336C392.191,498.575 391.976,495.712 390.045,484.423C387.961,472.249 387.668,471.298 385.343,469.206C383.98,467.979 382.411,466.974 381.856,466.974C380.425,466.974 375.287,473.187 374.663,475.671C374.375,476.816 372.517,481.181 370.532,485.372C368.548,489.562 366.924,493.278 366.924,493.628C366.924,493.979 365.9,495.247 364.648,496.446C362.757,498.258 361.636,498.627 358.029,498.627C354.054,498.627 353.44,498.367 350.769,495.542C349.165,493.845 347.438,491.563 346.933,490.47C343.449,482.93 341.817,480.304 339.21,478.047C336.628,475.811 336.174,474.86 335.657,470.62C335.001,465.231 333.235,461.026 331.824,461.496C331.319,461.664 330.156,462.808 329.237,464.038C327.794,465.97 327.597,467.264 327.786,473.568C327.906,477.581 327.595,482.23 327.094,483.9C326.3,486.549 326.442,487.553 328.209,491.767C330.223,496.571 330.647,501.25 330.572,517.871C330.549,522.953 328.494,529.55 326.322,531.515C323.293,534.257 311.49,531.125 309.278,526.992C307.49,523.652 307.003,516.27 306.841,490.076C306.75,475.361 306.315,461.496 305.875,459.264C305.133,455.503 305.347,454.406 308.79,444.283C311.725,435.654 313.093,432.772 315.3,430.565C317.987,427.878 318.314,427.775 323.837,427.877C327.968,427.953 330.664,428.5 333.439,429.826C336.957,431.507 337.657,432.356 341.356,439.435C343.588,443.705 347.002,449.856 348.942,453.101C350.881,456.347 353.372,460.976 354.477,463.388C356.527,467.866 359.038,470.392 360.775,469.725C362.595,469.027 363.702,463.96 363.613,456.736C363.536,450.51 363.81,448.946 365.621,445.285C366.774,442.953 368.105,439.317 368.578,437.205C369.527,432.971 373.178,423.318 374.431,421.733C375.347,420.573 379.857,421.017 385.661,422.835L385.663,422.835ZM254.668,439.433C258.122,440.742 260.529,443.384 261.478,446.914C261.949,448.661 264.197,454.151 266.475,459.114C270.313,467.476 270.631,468.647 270.806,475.063C270.911,478.939 271.55,483.418 272.257,485.234C273.092,487.382 273.531,491.278 273.555,496.747C273.574,501.293 273.953,505.967 274.397,507.134C274.896,508.448 274.931,510.47 274.488,512.443C273.708,515.912 274.973,524.256 277.369,531.466C279.091,536.642 279.068,543.521 277.316,547.796C275.787,551.525 272.496,553.55 266.666,554.349C259.2,555.372 257.657,553.651 255.407,541.79C254.755,538.351 253.831,534.512 253.356,533.26C252.849,531.926 252.491,524.322 252.491,514.885C252.491,502.575 252.114,496.586 250.892,489.436C249.846,483.323 249.45,478.307 249.746,474.95C250.135,470.542 249.786,468.51 247.287,460.617C243.531,448.757 243.479,441.628 247.133,439.188C248.434,438.32 252.04,438.437 254.669,439.432L254.668,439.433ZM463.911,405.977C460.307,408.18 459.624,409.312 458.162,415.495C456.856,421.02 455.801,442.349 456.689,445.265C457.466,447.816 463.443,447.013 476.33,442.626C489.417,438.17 491.051,436.973 491.081,431.817C491.097,429.12 490.572,428.236 487.048,425.03C484.819,423.002 481.125,418.292 478.839,414.564C475.51,409.135 474.003,407.456 471.272,406.133C467.118,404.122 466.95,404.119 463.911,405.978L463.911,405.977ZM466.344,423.232C470.941,429.277 473.268,433.623 473.486,436.569C473.632,438.551 473.209,438.95 469.592,440.242C467.36,441.039 464.126,441.719 462.405,441.753L459.276,441.816L459.77,438.367C460.041,436.47 460.469,431.631 460.721,427.613C461.178,420.315 461.502,418.28 462.205,418.28C462.41,418.28 464.273,420.508 466.345,423.233L466.344,423.232ZM630.13,426.625C625.466,428.58 624.801,429.573 623.091,437.147C620.38,449.149 620.852,458.946 624.32,462.638C626.564,465.027 627.223,465.015 638.125,462.372C648.137,459.946 648.548,459.56 648.548,452.588C648.548,450.047 649.212,447.724 650.63,445.304C652.517,442.084 652.621,441.471 651.738,438.74C649.011,430.306 643.337,424.737 637.548,424.814C635.786,424.838 632.448,425.652 630.129,426.625L630.13,426.625ZM631.755,437.149C632.51,437.707 634.329,441.085 635.796,444.656C638.177,450.447 638.768,451.248 641.274,452.065C642.82,452.569 644.194,453.529 644.328,454.199C644.766,456.389 642.399,457.673 635.919,458.762C629.73,459.802 629.5,459.782 628.132,458.094C625.318,454.618 625.123,442.215 627.818,438.101C629.286,435.861 629.833,435.728 631.754,437.149L631.755,437.149Z" style="fill:rgb(255,0,0);fill-rule:nonzero;stroke:black;stroke-width:1px;stroke-linecap:butt;stroke-linejoin:miter;stroke-miterlimit:4;"/>
                </g>
            </g>
        </g>
    </g>
</svg>
