<?xml version="1.0" encoding="iso-8859-1"?>
<!DOCTYPE svg PUBLIC "-//W3C//DTD SVG 20010904//EN" "http://www.w3.org/TR/2001/REC-SVG-20010904/DTD/svg10.dtd">
<svg version="1.0" xmlns="http://www.w3.org/2000/svg" xmlns:xlink="http://www.w3.org/1999/xlink" x="0px" y="0px" width="1152px" height="1152px" xml:space="preserve">
<g id="Simpsons_Dog_SVG.jpg_(Break)">
</g>
<g id="The_Simpsons_Title.jpg">
<path style="fill:rgb(255,0,0);stroke:rgb(0,0,0);" d="M 489.07 180.498 C 484.055 182.091 480.908 183.952 472.712 190.165 C 470.103 192.143 465.3 195.759 462.039 198.198 C 458.161 201.1 455.526 203.787 454.423 205.964 C 453.495 207.795 452.5 209.476 452.213 209.699 C 450.962 210.669 442.795 229.439 440.222 237.254 C 438.178 243.463 437.277 247.877 436.944 253.322 C 436.604 258.865 436.196 260.829 435.385 260.829 C 434.782 260.829 434.287 260.676 434.287 260.489 C 434.287 260.302 433.749 258.02 433.091 255.417 C 432.433 252.814 430.977 244.293 429.855 236.481 C 428.734 228.67 427.11 219.365 426.249 215.804 C 424.902 210.234 424.225 208.903 421.401 206.268 C 418.43 203.497 417.695 203.206 413.661 203.206 C 411.21 203.206 408.247 203.643 407.076 204.176 C 404.87 205.181 402.635 208.607 402.635 210.984 C 402.635 211.734 401.345 213.565 399.768 215.052 C 392.971 221.461 392.08 229.089 396.647 241.757 C 398.257 246.221 400.619 252.795 401.898 256.366 C 404.597 263.902 405.116 271.688 402.974 272.511 C 399.628 273.795 394.689 272.28 394.468 269.902 C 393.263 256.908 393.053 255.826 391.391 254.057 C 389.989 252.563 389.646 251.187 389.63 246.98 C 389.61 241.698 389.081 238.532 386.697 229.439 C 385.501 224.876 384.982 224.129 380.922 221.12 C 373.25 215.438 369.373 217.081 366.04 227.431 C 365.012 230.623 363.744 233.235 363.222 233.235 C 362.701 233.235 361.352 233.961 360.225 234.847 C 358.421 236.266 358.139 237.192 357.866 242.598 C 357.537 249.111 356.854 250.243 353.235 250.266 C 352.178 250.273 350.112 251.334 348.644 252.622 C 347.051 254.021 343.569 255.668 340.015 256.703 C 336.738 257.658 332.116 259.399 329.746 260.571 C 325.797 262.524 325.327 262.594 324.139 261.406 C 323.268 260.535 322.664 257.869 322.3 253.286 C 321.694 245.655 319.993 242.278 315.898 240.582 C 313.068 239.41 310.573 240.473 304.083 245.615 C 301.819 247.409 298.436 249.535 296.564 250.34 C 292.041 252.286 290.434 255.483 289.867 263.67 L 289.417 270.163 L 285.359 271.178 C 283.128 271.736 276.554 272.548 270.751 272.981 C 259.021 273.856 257.186 274.264 251.081 277.358 C 246.206 279.828 244.767 282.083 243.16 289.763 C 242.349 293.639 242.285 295.7 242.915 297.606 C 244.191 301.463 252.079 309.149 256.881 311.214 C 262.132 313.474 275.731 314.25 285.243 312.836 C 294.771 311.418 295.986 312.03 296.704 318.603 C 297.904 329.583 300.398 345.027 301.617 349.033 C 302.321 351.345 304.318 355.434 306.054 358.119 C 310.027 364.267 313.347 365.54 320.211 363.544 C 326.123 361.825 332.898 355.22 334.885 349.238 C 336.645 343.938 336.164 334.982 333.58 324.945 C 332.465 320.615 331.769 315.335 331.712 310.765 L 331.62 303.484 L 334.461 303 C 336.023 302.734 339.822 301.171 342.902 299.527 C 351.678 294.845 353.331 295.534 355.191 304.655 C 356.634 311.732 358.359 314.494 361.986 315.533 C 363.42 315.944 365.795 317.484 367.265 318.953 C 370.021 321.71 371.144 324.85 373.764 337.126 C 374.48 340.478 375.754 344.354 376.597 345.739 C 378.85 349.445 384.176 351.726 390.576 351.726 C 395.116 351.726 396.119 351.45 397.705 349.762 C 398.821 348.574 399.639 346.567 399.773 344.689 C 399.895 342.98 400.772 340.047 401.72 338.171 C 403.917 333.831 403.924 329.183 401.752 318.065 C 400.82 313.296 400.211 309.241 400.398 309.054 C 400.584 308.868 402.97 308.481 405.701 308.197 C 411.395 307.602 410.762 306.647 412.244 318.045 C 412.731 321.791 414.443 328.128 416.288 333.021 C 419.062 340.377 419.848 341.698 422.208 342.963 C 430.277 347.29 443.77 340.642 446.467 331.008 C 447.431 327.565 447.4 326.842 446.198 324.747 C 445.264 323.122 444.99 321.435 445.32 319.367 C 445.887 315.821 444.702 310.836 441.833 304.694 C 438.98 298.588 437.863 291.409 439.079 287.001 C 440.518 281.783 442.579 282.303 444.409 288.346 C 445.595 292.262 446.771 294.028 450.827 297.972 C 462.712 309.532 472.225 316.177 481.358 319.298 C 486.015 320.89 488.345 321.107 501.242 321.146 C 515.063 321.188 516.2 321.072 522.318 318.988 C 533.176 315.291 550.938 302.058 558.098 292.332 C 561.601 287.574 564.141 281.217 564.141 277.208 C 564.141 276.113 563.736 273.865 563.24 272.212 C 562.509 269.771 562.581 268.739 563.623 266.725 C 564.329 265.36 565.148 262.725 565.445 260.869 C 565.919 257.905 565.713 257.21 563.75 255.162 C 560.615 251.889 554.119 249.219 550.972 249.911 C 547.905 250.585 542.258 256.26 540.271 260.665 C 539.288 262.845 538.112 264.116 536.762 264.455 C 535.645 264.735 531.397 267.448 527.32 270.483 C 523.243 273.519 518.759 276.595 517.356 277.319 C 513.903 279.101 508.14 280.001 508.14 278.758 C 508.14 278.24 511.416 274.668 515.419 270.821 C 521.11 265.352 523.437 262.404 526.089 257.307 C 530.636 248.566 530.97 246.63 529.676 236.513 C 529.074 231.807 528.161 223.941 527.648 219.03 C 526.611 209.116 525.101 203.037 522.285 197.436 C 519.29 191.479 516.938 189.258 507.955 183.896 C 498.51 178.258 496.976 177.982 489.069 180.496 L 489.07 180.498 zM 502.315 182.92 C 504.244 183.795 506.726 185.223 507.832 186.093 C 508.937 186.963 510.833 187.892 512.045 188.157 C 513.84 188.552 514.955 190.023 518.082 196.126 C 522.35 204.457 523.334 208.433 524.353 221.467 L 525.051 230.394 L 522.684 234.262 C 521.382 236.389 520.317 238.489 520.317 238.928 C 520.317 239.368 519.952 239.728 519.506 239.728 C 519.059 239.728 518.694 240.211 518.694 240.801 C 518.694 242.279 511.095 253.253 507.467 257.015 C 500.812 263.912 492.027 268.083 484.067 268.122 C 481.992 268.132 481.353 268.563 480.755 270.357 C 479.905 272.909 481.402 278.923 483.452 281.188 C 487.097 285.215 502.146 288.076 508.652 285.979 C 512.099 284.868 519.697 279.685 524.782 274.979 C 526.568 273.325 531.315 270.409 535.333 268.496 C 540.064 266.243 542.952 264.352 543.531 263.127 C 548.113 253.428 549.691 252.415 556.57 254.753 L 560.898 256.224 L 560.891 260.76 C 560.88 267.114 557.828 272.076 549.042 280.02 C 545.164 283.526 539.535 288.861 536.535 291.874 C 533.534 294.887 530.693 297.353 530.22 297.353 C 529.747 297.353 526.948 298.469 524.001 299.833 C 514.015 304.455 512.416 304.809 500.083 305.119 C 485.813 305.478 484.47 305.014 474.737 296.361 C 471.015 293.052 466.992 289.706 465.797 288.924 C 463.562 287.464 462.657 285.13 459.775 273.411 C 459.006 270.287 457.112 265.423 455.566 262.602 C 452.881 257.705 452.772 257.191 453.169 251.239 C 453.398 247.811 454.333 242.748 455.248 239.988 C 456.162 237.228 457.271 233.028 457.712 230.654 C 458.462 226.606 463.399 214.836 469.687 202.101 C 472.234 196.944 477.672 189.496 480.547 187.231 C 484.218 184.339 491.948 181.631 497.188 181.401 C 498.08 181.362 500.389 182.046 502.317 182.921 L 502.315 182.92 zM 417.55 206.765 C 422.011 208.629 423.513 214.296 426.507 240.565 C 427.196 246.605 428.46 253.583 429.316 256.072 C 431.078 261.193 434.64 267.219 436.819 268.766 C 439.384 270.587 439.482 274.544 437.117 280.744 C 434.189 288.42 434.601 294.907 438.66 305.039 C 440.292 309.11 441.67 314.069 441.787 316.287 C 441.972 319.773 441.731 320.457 439.799 321.922 C 438.436 322.955 435.922 323.729 433.184 323.956 C 429.226 324.284 428.635 324.122 427.51 322.403 C 426.818 321.347 426.001 318.839 425.693 316.83 C 425.384 314.822 424.453 311.824 423.625 310.17 C 422.447 307.82 420.614 299.25 420.506 295.588 C 420.466 294.2 416.118 290.048 414.704 290.048 C 413.834 290.048 411.689 290.778 409.939 291.671 C 408.19 292.564 405.629 293.294 404.25 293.294 C 395.723 293.294 393.416 300.503 397.369 314.796 C 399.583 322.796 400.003 331.388 398.343 334.685 C 397.157 337.042 393.877 337.723 390.482 336.318 C 387.825 335.217 386.902 333.469 385.586 327.043 C 384.373 321.12 382.109 313.954 379.364 307.35 C 377.384 302.584 377.02 302.209 372.102 299.86 C 366.361 297.117 366.147 296.667 367.308 289.785 C 367.681 287.577 369.104 285.299 372.247 281.88 L 376.663 277.077 L 376.663 270.651 C 376.663 266.907 375.625 258.693 374.175 250.963 C 372.807 243.668 371.286 235.499 370.795 232.81 C 369.599 226.255 370.33 223.687 373.806 222.235 C 377.167 220.83 378.945 221.392 379.618 224.071 C 379.897 225.182 381.254 228.336 382.634 231.084 C 384.722 235.237 385.172 237.15 385.313 242.452 C 385.407 245.958 386.01 250.158 386.656 251.786 C 387.301 253.413 388.264 257.483 388.797 260.831 C 390.561 271.932 392.242 274.68 397.919 275.745 C 402.002 276.511 411.259 273.501 414.069 270.494 L 416.264 268.143 L 414.674 263.067 C 412.615 256.493 411.907 252.762 409.545 236.077 C 408.471 228.489 407.047 219.724 406.38 216.599 C 404.953 209.912 405.736 207.822 410.146 206.549 C 413.851 205.479 414.517 205.499 417.549 206.766 L 417.55 206.765 zM 315.632 244.761 C 316.168 245.296 316.606 246.501 316.606 247.439 C 316.606 248.376 316.972 249.509 317.42 249.957 C 317.867 250.404 318.57 253.45 318.981 256.724 C 319.425 260.256 320.261 263.21 321.037 263.986 C 322.948 265.896 330.007 265.705 334.056 263.633 C 338.615 261.3 348.504 255.844 349.476 255.125 C 349.923 254.794 351.479 254.27 352.935 253.958 C 355.456 253.419 355.659 253.56 357.178 256.908 C 358.056 258.843 358.782 262.202 358.792 264.374 C 358.806 267.623 358.307 269.007 355.975 272.185 C 351.183 278.712 341.475 285.141 332.3 287.864 C 322.971 290.631 321.634 293.545 325.093 303.562 C 327.816 311.449 328.452 314.827 330.379 331.651 C 332.027 346.044 331.735 349.574 328.82 350.499 C 328.023 350.753 326.718 351.68 325.921 352.562 C 324.062 354.616 322.236 354.59 319.541 352.469 C 315.88 349.59 314.808 346.388 314.102 336.226 C 313.493 327.465 310.443 310.108 308.218 302.75 C 306.351 296.571 300.767 294.799 288.365 296.449 C 284.481 296.965 277.467 297.453 272.781 297.532 C 265.396 297.657 263.825 297.44 261.012 295.91 C 254.809 292.534 254.645 292.279 255.145 286.771 C 255.412 283.823 256.144 281.205 256.95 280.314 C 258.899 278.161 264.247 277.127 277.795 276.282 C 290.951 275.462 295.646 274.404 298.887 271.53 C 302.124 268.66 303.108 265.688 302.065 261.933 C 300.316 255.632 301.6 249.469 304.663 249.469 C 305.098 249.469 306.868 248.19 308.598 246.628 C 311.874 243.668 313.98 243.109 315.633 244.761 L 315.632 244.761 zM 493.517 202.632 C 488.447 205.06 482.323 212.193 480.792 217.454 C 477.765 227.858 475.096 239.941 475.254 242.53 C 475.466 246.037 477.538 248.422 480.957 249.094 C 482.917 249.48 484.724 248.775 490.288 245.451 C 494.082 243.184 497.671 241.06 498.263 240.732 C 498.856 240.403 499.993 238.308 500.793 236.076 C 501.592 233.844 503.234 229.883 504.442 227.274 C 505.649 224.665 507.036 220.629 507.523 218.305 C 508.333 214.447 508.229 213.684 506.323 209.523 C 503.368 203.069 498.3 200.342 493.517 202.632 L 493.517 202.632 zM 495.766 229.638 C 499.207 231.045 499.519 234.401 496.286 235.213 C 495.121 235.505 492.256 237.554 489.917 239.764 C 485.464 243.976 483.835 244.572 482.192 242.592 C 481.396 241.633 481.525 240.99 482.854 239.299 C 483.762 238.144 485.105 235.396 485.837 233.192 C 487.771 227.368 489.076 226.901 495.765 229.637 L 495.766 229.638 zM 813.709 304.66 C 793.938 307.654 773.726 323.263 762.749 344.018 C 762.041 345.357 759.704 352.015 757.556 358.814 C 755.351 365.795 753.22 371.182 752.662 371.191 C 752.118 371.199 750.121 369.106 748.223 366.54 C 740.339 355.876 734.278 349.227 729.584 346.093 C 726.873 344.283 723.96 342.801 723.111 342.801 C 719.882 342.801 716.224 347.727 713.507 355.734 C 712.077 359.946 709.477 366.238 707.728 369.716 C 705.979 373.194 704.548 376.724 704.548 377.56 C 704.548 380.007 708.898 385.321 714.312 389.486 C 717.254 391.75 719.805 394.472 720.464 396.051 C 721.793 399.23 721.966 406.59 720.731 407.353 C 720.257 407.646 718.157 407.151 716.064 406.254 C 713.971 405.356 710.828 404.356 709.081 404.031 C 707.334 403.705 704.594 402.551 702.994 401.465 C 699.52 399.107 698.106 399.283 689.82 403.097 C 686.538 404.608 682.908 406.077 681.753 406.363 C 677.194 407.489 672.976 412.454 670.078 420.106 C 669.275 422.227 668.152 423.961 667.582 423.961 C 667.013 423.961 665.554 421.43 664.34 418.336 C 663.126 415.242 661.073 411.423 659.776 409.851 C 656.127 405.423 647.981 401.853 637.591 400.126 C 632.781 399.327 630.018 398.463 627.631 397.013 C 625.374 395.643 623.845 395.441 617.486 395.68 C 601.98 396.262 594.862 403.31 587.985 424.887 C 583.981 437.454 582.822 440.192 581.508 440.192 C 580.889 440.192 576.089 436.708 570.843 432.449 C 564.275 427.119 560.429 423.326 558.501 420.278 C 556.961 417.843 555.044 415.642 554.241 415.386 C 552.623 414.873 552.336 412.508 553.605 410.136 C 554.065 409.277 556.289 408.042 558.628 407.348 C 560.936 406.662 564.308 405.384 566.121 404.508 C 567.935 403.631 572.893 402.012 577.142 400.909 C 586.974 398.357 589.077 397.542 592.433 394.981 C 594.919 393.085 595.127 392.605 594.734 389.671 C 594.477 387.755 593.451 385.558 592.208 384.26 C 590.041 381.998 589.25 376.706 590.925 375.67 C 594.545 373.433 584.121 356.48 577.384 353.648 C 574.1 352.269 568.298 353.264 562.499 356.202 C 557.616 358.677 541.548 369.491 537.019 373.351 C 535.269 374.843 531.851 376.806 529.424 377.715 C 526.997 378.623 523.454 380.437 521.552 381.746 C 513.866 387.034 506.439 397.837 505.176 405.566 C 504.896 407.279 504.18 408.866 503.586 409.094 C 502.325 409.578 501.664 408.942 496.844 402.602 C 491.259 395.258 482.891 387.987 476.24 384.701 C 471.327 382.273 469.4 381.757 465.246 381.757 C 456.313 381.757 447.413 385.633 434.218 395.269 C 426.666 400.784 423.866 404.19 420.854 411.514 C 418.052 418.327 418.1 430.108 420.983 443.53 C 422.523 450.701 422.88 453.85 422.3 455.125 C 421.862 456.087 419.358 457.917 416.737 459.192 C 414.115 460.467 411.001 462.192 409.816 463.025 C 408.631 463.857 407.119 464.539 406.456 464.539 C 404.469 464.539 401.783 457.52 400.906 450.038 C 398.692 431.144 398.124 428.859 394.785 425.408 C 391.038 421.534 386.948 419.317 382.219 418.595 C 380.281 418.298 378.243 417.7 377.691 417.265 C 375.859 415.821 372.998 417.361 370.67 421.044 C 367.143 426.625 365.697 427.691 363.355 426.438 C 361.671 425.537 361.106 425.639 358.957 427.227 C 356.23 429.243 351.944 437.286 351.074 442.017 C 350.087 447.388 347.675 445.696 343.564 436.753 C 340.273 429.592 338.218 427.679 331.637 425.646 C 320.489 422.202 313.945 423.834 309.704 431.116 C 306.638 436.38 305.846 436.916 301.107 436.932 C 296.969 436.946 292.147 439.794 289.549 443.76 C 285.652 449.706 283.341 467.18 283.318 490.854 C 283.305 505.034 282.348 520.171 281.405 521.114 C 281.194 521.326 280.241 521.251 279.287 520.948 C 277.793 520.474 277.644 520.043 278.212 517.831 C 279.484 512.864 278.936 493.737 277.373 488.587 C 275.543 482.557 275.179 480.43 274.439 471.437 C 273.896 464.846 273.397 463.22 269.331 454.799 C 266.853 449.666 264.59 444.666 264.302 443.69 C 263.547 441.132 258.722 437.173 255.153 436.182 C 248.741 434.401 243.852 435.405 241.99 438.883 C 241.126 440.498 240.231 441.003 238.227 441.003 C 234.264 441.003 226.89 447.276 225.558 451.781 C 223.8 457.723 224.314 468.169 226.705 475.09 C 229.021 481.795 228.916 481.274 231.759 500.249 C 234.319 517.336 235 527.799 234.26 538.661 C 233.727 546.473 233.516 547.322 232.103 547.322 C 230.822 547.322 217.748 540.139 214.753 537.789 C 212.377 535.925 198.575 530.232 193.681 529.097 C 186.846 527.512 176.838 523.568 163.229 517.099 C 149.324 510.489 138.719 506.128 132.025 504.268 C 128.93 503.409 126.191 502.384 125.938 501.99 C 125.684 501.597 123.286 500.649 120.608 499.883 C 111.265 497.212 102.461 492.074 78.852 475.516 C 76.4562 473.835 75.018 472.122 74.5774 470.422 C 74.0774 468.492 72.8129 467.201 69.4602 465.196 L 65.007 462.532 L 65.4875 454.811 C 66.0613 445.582 67.4726 440.625 71.3845 434.104 C 77.1655 424.463 92.0543 412.37 101.535 409.612 C 103.99 408.898 108.738 406.795 112.086 404.94 C 115.434 403.084 119.152 401.034 120.349 400.385 C 121.545 399.736 124.716 397.824 127.395 396.136 C 132.857 392.695 142.255 389.08 150.691 387.176 C 160.43 384.978 175.367 383.309 177.082 384.227 C 178.952 385.228 180.578 388.245 181.873 393.118 C 182.407 395.127 183.554 397.931 184.424 399.35 C 186.286 402.393 193.199 406.103 197.005 406.103 C 204.812 406.103 219.768 400.697 221.64 397.199 C 222.287 395.99 222.26 394.258 221.541 390.776 C 220.641 386.419 220.709 385.657 222.322 381.906 C 223.293 379.649 224.087 376.239 224.087 374.328 C 224.087 368.826 220.821 354.894 218.657 351.164 C 214.747 344.424 207.604 338.442 200.957 336.34 C 199.171 335.775 196.98 334.863 196.087 334.314 C 192.196 331.916 183.408 329.037 178.419 328.526 C 175.443 328.221 167.06 328.435 159.793 329.003 C 148.979 329.847 145.327 330.472 139.681 332.445 C 120.775 339.053 101.629 350.165 80.0288 367.066 C 68.3191 376.229 47.9708 393.235 47.9708 393.858 C 47.9708 394.214 44.8048 398.12 40.9351 402.536 C 36.9582 407.076 33.0204 412.509 31.8785 415.031 C 30.7674 417.486 28.7757 420.745 27.452 422.274 C 22.2675 428.265 19.6274 435.684 15.4964 455.876 C 11.2866 476.453 22.0849 497.741 44.4696 512.99 C 52.0564 518.158 66.2877 526.213 76.3758 531.049 C 79.7237 532.654 84.6541 535.4 87.3324 537.152 C 90.0107 538.903 97.8629 542.859 104.782 545.942 C 111.701 549.026 117.483 551.875 117.632 552.275 C 117.78 552.675 118.306 553.003 118.8 553.003 C 119.295 553.003 122.095 554.436 125.023 556.188 C 128.745 558.414 133.645 560.264 141.304 562.333 C 160.686 567.571 166.74 569.375 173.159 571.823 C 178.583 573.892 179.449 574.489 179.449 576.164 C 179.449 577.232 178.81 578.445 178.028 578.861 C 176.348 579.756 158.402 582.559 145.767 583.901 C 140.857 584.423 135.014 585.584 132.782 586.482 C 122.778 590.509 110.581 591.365 97.8831 588.93 C 93.8657 588.16 88.7227 587.522 86.4534 587.512 C 81.0068 587.49 74.6853 590.427 69.4773 595.399 C 67.0823 597.686 64.1248 599.629 62.2606 600.142 C 58.4939 601.179 51.459 607.907 49.2693 612.565 C 47.3873 616.571 47.7947 619.731 51.2724 628.088 C 56.0389 639.541 59.3218 641.454 81.2446 645.556 C 87.937 646.808 105.731 646.398 118.266 644.701 C 124.91 643.802 130.894 642.903 131.564 642.702 C 136.103 641.345 159.004 639.762 167.274 640.235 C 182.861 641.127 192.018 638.181 209.606 626.617 C 226.341 615.612 233.825 606.03 233.825 595.607 C 233.825 591.614 234.157 590.286 235.451 589.115 C 237.231 587.504 238.263 584.205 239.129 577.35 C 240.121 569.496 241.871 568.376 247.436 572.036 C 251.032 574.401 259.966 576.044 263.489 574.99 C 267.833 573.689 268.632 573.173 270.304 570.582 C 271.215 569.172 272.709 566.921 273.625 565.582 C 274.836 563.809 275.171 562.358 274.859 560.243 C 274.498 557.802 274.801 556.983 276.764 555.104 C 278.279 553.652 279.574 551.111 280.456 547.863 C 282.771 539.325 283.429 537.582 284.332 537.582 C 284.812 537.582 288.569 541.143 292.678 545.495 L 300.148 553.408 L 308.199 554.914 C 315.535 556.285 316.514 556.309 319.22 555.179 C 323.169 553.529 327.685 546.714 329.04 540.359 C 329.604 537.715 330.871 534.275 331.855 532.712 C 333.175 530.619 333.646 528.617 333.648 525.096 C 333.651 519.651 335.084 514.068 336.63 513.474 C 337.206 513.253 338.587 514.153 339.699 515.474 C 341.059 517.091 343.784 518.609 348.028 520.116 L 354.335 522.355 L 357.925 520.451 C 362.507 518.021 365.564 513.245 368.262 504.307 C 369.407 500.512 370.759 496.038 371.268 494.365 C 371.776 492.69 372.615 491.321 373.132 491.321 C 373.805 491.321 374.174 496.342 374.431 508.973 C 374.828 528.52 375.491 532.004 380.123 538.905 C 382.094 541.841 384.075 543.507 388.029 545.554 C 392.689 547.966 393.872 548.245 398.174 547.947 C 403.694 547.565 409.039 544.709 409.096 542.109 C 409.115 541.251 409.77 539.842 410.551 538.978 C 411.989 537.387 412.055 536.55 412.554 513.639 C 412.622 510.514 412.552 505.036 412.398 501.465 C 412.244 497.894 412.388 493.786 412.718 492.335 C 413.289 489.82 413.494 489.697 417.108 489.7 C 421.802 489.704 425.77 491.976 427.369 495.575 C 428.015 497.029 429.1 501.94 429.78 506.489 C 430.461 511.038 431.594 516.199 432.297 517.958 C 433.618 521.259 438.28 525.617 442.01 527.034 C 447.836 529.249 456.463 527.009 460.477 522.237 C 464.029 518.016 465.13 512.708 465.13 499.807 L 465.13 488.299 L 469.138 487.825 C 472.591 487.416 478.515 485.358 488.26 481.181 C 489.599 480.607 491.587 479.868 492.677 479.537 C 493.767 479.207 496.409 477.553 498.549 475.862 C 500.688 474.17 503.503 472.553 504.802 472.268 C 507.676 471.637 509.282 469.955 511.047 465.73 C 512.175 463.032 512.297 460.865 511.816 452.166 C 511.405 444.745 511.5 441.812 512.149 441.812 C 512.647 441.812 515.357 443.912 518.172 446.479 C 525.715 453.357 526.203 453.68 530.854 454.872 C 535.769 456.132 537.126 457.727 537.864 463.114 L 538.378 466.861 L 531.579 470.215 C 524.59 473.664 521.128 476.24 521.128 477.991 C 521.128 478.541 519.52 479.933 517.553 481.085 C 513.448 483.491 509.646 487.982 508.138 492.206 C 507.317 494.505 507.293 496.445 508.023 501.348 C 509.967 514.421 514.286 517.199 533.737 517.889 C 543.717 518.244 545.925 518.075 551.558 516.53 C 557.812 514.814 566.059 510.536 568.287 507.852 C 568.892 507.122 572.316 504.307 575.896 501.596 C 586.794 493.343 590.115 488.756 590.115 481.957 C 590.115 478.919 590.366 478.262 591.448 478.475 C 592.182 478.62 593.186 479.448 593.68 480.317 C 594.174 481.185 594.855 482.281 595.194 482.751 C 601.558 491.611 603.459 493.677 608.781 497.525 C 619.131 505.008 625.745 505.827 639.216 501.292 C 645.414 499.207 649.129 496.775 655.328 490.748 C 656.601 489.51 659.693 484.293 662.198 479.154 C 664.704 474.015 668.119 467.681 669.786 465.079 C 671.586 462.27 673.044 458.808 673.374 456.557 C 674.138 451.349 675.075 449.113 676.493 449.113 C 678.196 449.113 679.054 454.057 678.605 461.287 C 678.398 464.635 678.215 470.844 678.2 475.084 C 678.17 483.737 679.558 487.207 684.127 489.896 C 687.277 491.75 689.266 491.687 693.424 489.604 C 698.142 487.239 701.128 484.248 701.753 481.26 C 702.044 479.872 703.5 477.458 704.991 475.896 C 706.482 474.334 709.511 469.768 711.723 465.751 C 714.424 460.844 716.272 458.365 717.356 458.2 C 718.527 458.02 720.649 459.919 725.111 465.135 C 728.489 469.085 732.92 473.514 734.957 474.977 C 738.323 477.394 738.906 477.556 741.338 476.754 C 745.091 475.515 749.227 470.892 753.308 463.371 C 755.229 459.831 757.785 455.814 758.987 454.444 C 764.141 448.57 765.573 439.632 763.415 426.794 C 762.664 422.33 761.53 416.877 760.895 414.676 C 759.308 409.179 759.406 407.722 761.362 407.722 C 762.255 407.722 762.986 408.102 762.986 408.568 C 762.986 409.034 764.718 411.267 766.836 413.531 C 769.731 416.627 773.017 418.816 780.092 422.362 C 785.265 424.955 790.67 428.064 792.103 429.27 C 797.564 433.865 799.493 442.002 796.345 447.164 C 794.48 450.222 785.287 456.78 779.875 458.913 C 774.087 461.195 772.099 462.728 771.132 465.658 C 770.492 467.598 769.493 468.554 767.259 469.362 C 763.583 470.691 760.489 473.681 758.251 478.065 C 756.154 482.175 756.783 485.055 761.159 491.38 C 768.454 501.925 784.618 503.774 800.402 495.871 C 819.685 486.215 834.199 473.801 840.006 461.994 C 843.91 454.057 844.989 449.093 844.395 441.809 C 844.06 437.7 844.344 435.462 845.678 431.692 C 848.822 422.81 847.678 413.625 842.908 409.437 C 841.356 408.075 840.087 406.246 840.087 405.374 C 840.087 401.959 836.206 398.901 829.14 396.745 C 823.04 394.884 818.81 392.607 817.172 390.3 C 816.844 389.838 816.57 389.746 816.563 390.094 C 816.548 390.836 808.32 385.698 804.783 382.739 C 798.584 377.554 797.096 372.604 800.726 369.241 C 803.296 366.859 815.327 359.837 816.839 359.837 C 818.531 359.837 819.567 361.446 820.655 365.771 C 821.855 370.538 824.946 373.133 832.06 375.347 C 836.876 376.846 837.179 376.851 839.99 375.473 C 841.809 374.581 844.268 372.084 846.505 368.859 C 849.677 364.286 850.123 363.096 850.308 358.714 C 850.458 355.167 850.164 353.359 849.277 352.377 C 848.156 351.137 848.251 350.567 850.258 346.464 C 852.787 341.295 852.755 339.955 849.736 324.463 L 847.982 315.464 L 843.902 312.694 C 841.658 311.171 839.419 309.527 838.927 309.041 C 838.434 308.556 835.601 307.186 832.63 305.998 C 826.978 303.737 822.071 303.389 813.709 304.654 L 813.709 304.66 zM 838.652 311.466 C 843.885 314.018 845.215 317.338 847.303 333.061 C 847.748 336.409 848.354 339.958 848.65 340.949 C 849.055 342.304 848.58 343.36 846.728 345.21 C 844.532 347.406 843.742 347.67 839.365 347.67 C 835.525 347.67 834.296 347.362 833.702 346.25 C 833.284 345.469 832.952 344.647 832.965 344.424 C 833.114 341.918 831.515 335.179 830.298 333.177 C 828.11 329.577 824.676 329.747 816.268 333.872 C 809.203 337.339 805.006 340.809 801.251 346.29 C 796.424 353.338 795.459 356.166 794.713 365.451 C 794.321 370.332 793.761 374.712 793.47 375.183 C 792.812 376.246 800.012 383.203 805.999 387.289 C 808.454 388.965 815.454 392.845 821.556 395.912 L 832.649 401.489 L 838.099 409.468 C 844.672 419.094 845.408 421.943 843.347 429.794 C 841.192 438.006 836.03 446.322 827.989 454.539 C 816.832 465.941 809.911 471.82 807.623 471.839 C 806.507 471.848 801.966 473.679 797.531 475.907 C 789.03 480.179 784.721 480.944 779.473 479.115 C 775.185 477.62 772.812 469.526 775.527 465.65 C 776.176 464.724 779.769 462.456 783.512 460.61 C 787.255 458.765 791.468 456.155 792.875 454.81 C 794.282 453.465 795.985 452.364 796.659 452.364 C 797.332 452.364 797.883 451.999 797.883 451.553 C 797.883 451.106 798.4 450.741 799.033 450.741 C 799.665 450.741 802.992 448.862 806.425 446.566 C 813.619 441.754 819.796 434.249 819.796 430.32 C 819.796 424.572 812.992 418.389 803.97 415.939 C 802.185 415.455 798.599 413.317 796.003 411.189 C 788.687 405.194 783.861 402.045 781.99 402.045 C 779.859 402.045 778.491 400.426 775.814 394.74 C 770.293 383.012 769.413 375.867 771.827 362.339 C 773.129 355.039 774.259 351.502 777.141 345.701 C 782.09 335.742 790.27 325.868 798.118 320.376 C 799.951 319.094 802.931 316.541 804.74 314.704 C 809.879 309.485 810.005 309.452 823.449 309.731 C 833.206 309.934 836.224 310.278 838.653 311.462 L 838.652 311.466 zM 174.577 333.529 C 182.277 333.988 184.232 334.464 194.866 338.467 C 201.339 340.903 207.365 343.372 208.258 343.953 C 210.739 345.569 215.171 350.27 216.353 352.539 C 217.582 354.9 220.838 370.328 220.838 373.794 C 220.838 379.088 216.964 382.568 211.071 382.568 C 208.309 382.568 206.857 380.427 205.547 374.423 C 204.372 369.033 201.479 365.524 198.21 365.524 C 196.96 365.524 193.049 364.781 189.518 363.872 C 182.974 362.188 170.889 361.608 164.388 362.666 C 155.466 364.118 145.422 366.812 140.084 369.185 C 138.745 369.78 135.64 371.032 133.185 371.967 C 130.73 372.902 122.712 376.674 115.366 380.349 C 104.683 385.694 101.048 387.96 97.203 391.676 C 94.5589 394.231 90.7995 397.061 88.8485 397.966 C 86.8974 398.87 83.5658 400.406 81.4459 401.379 C 75.5383 404.09 72.3787 406.827 69.7199 411.539 C 68.3841 413.906 67.006 415.843 66.6586 415.843 C 66.3104 415.843 64.3667 417.433 62.3393 419.375 C 57.8771 423.65 56.1484 428.542 55.5008 438.73 C 55.0706 445.497 55.1802 446.117 58.1166 453.537 C 59.8022 457.796 61.6778 461.694 62.2849 462.198 C 62.892 462.702 63.3887 463.544 63.3887 464.07 C 63.3887 464.596 65.0224 466.059 67.019 467.321 C 69.0155 468.583 70.8391 470.208 71.0721 470.932 C 71.9153 473.562 79.6815 480.707 86.6709 485.284 C 90.6048 487.86 95.8558 491.552 98.3385 493.486 C 100.821 495.42 103.246 497.002 103.727 497.002 C 104.209 497.002 107.108 498.24 110.17 499.752 C 113.232 501.265 117.564 503.044 119.795 503.706 C 122.027 504.368 127.345 506.396 131.611 508.212 C 135.879 510.028 146.835 514.301 155.959 517.708 C 189.864 530.368 207.846 537.787 218.615 543.563 C 226.342 547.707 227.295 548.363 227.771 549.86 C 228.002 550.589 229.258 551.399 230.561 551.659 C 232.662 552.08 233.119 552.746 234.595 557.522 C 237.117 565.688 236.755 577.915 233.804 584.248 C 233.387 585.141 232.716 586.79 232.311 587.914 C 231.213 590.959 225.14 598.328 222.308 600.05 C 220.944 600.879 217.043 602.519 213.638 603.694 C 205.666 606.444 201.747 608.547 197.628 612.285 C 194.108 615.477 192.954 615.789 176.791 617.91 C 173.32 618.365 168.39 619.608 165.834 620.672 C 161.247 622.583 160.82 622.608 132.781 622.656 C 96.7591 622.718 84.2751 621.494 75.436 617.036 C 71.4251 615.012 69.7143 610.527 70.0438 602.893 L 70.2881 597.234 L 75.1576 594.799 C 80.541 592.107 77.4163 592.28 109.245 592.916 C 121.548 593.162 122.552 593.063 128.351 591.031 C 132.224 589.674 137.888 588.548 143.772 587.963 C 168.52 585.502 174.237 584.306 179.63 580.466 C 181.715 578.982 183.538 578.59 189.541 578.337 C 198.127 577.976 205.515 575.84 211.734 571.922 C 215.365 569.634 215.898 568.993 215.222 567.73 C 213.988 565.425 209.362 562.248 206.395 561.667 C 203.559 561.112 198.477 557.871 194.491 554.076 C 191.108 550.855 185.889 547.656 183.173 547.136 C 181.906 546.894 179.679 547.025 178.223 547.427 C 175.944 548.056 174.519 547.663 167.976 544.599 C 163.796 542.642 158.55 540.406 156.318 539.631 C 154.086 538.856 151.53 537.906 150.637 537.52 C 149.744 537.133 141.344 534.272 131.97 531.159 C 111.353 524.314 106.666 522.3 103.158 518.78 C 97.9034 513.507 95.8558 512.422 91.1566 512.422 C 87.3714 512.422 86.0663 511.956 81.5749 509.003 C 78.7149 507.123 76.375 505.335 76.375 505.03 C 76.375 504.239 69.0552 499.723 66.6359 499.021 C 65.5199 498.698 64.0258 497.924 63.3148 497.302 C 62.6047 496.68 59.3177 494.775 56.0105 493.069 C 52.1943 491.1 49.5534 489.146 48.7808 487.719 C 48.1112 486.482 46.6503 484.469 45.5344 483.245 C 44.4184 482.021 42.2271 478.734 40.6648 475.94 C 39.1025 473.147 36.787 469.627 35.5193 468.118 C 30.2236 461.814 28.8569 452.47 31.3534 439.652 C 32.0351 436.154 32.6081 431.1 32.6267 428.422 C 32.6673 422.625 34.6022 418.82 41.1055 411.746 C 43.4632 409.182 46.6868 404.397 48.2686 401.115 C 49.8504 397.832 52.3477 394.027 53.8183 392.659 C 58.3868 388.41 65.2927 382.32 69.866 378.508 C 72.2765 376.5 75.798 373.527 77.6923 371.903 C 85.4584 365.243 106.322 351.402 116.144 346.393 C 131.454 338.588 155.117 331.691 163.217 332.674 C 164.779 332.864 169.892 333.248 174.579 333.527 L 174.577 333.529 zM 735.35 355.596 C 739.457 360.253 739.338 360.088 742.244 365.119 C 743.532 367.351 745.477 370.356 746.564 371.796 C 748.007 373.709 749.049 377.103 750.425 384.376 C 751.462 389.854 753.138 397.988 754.152 402.452 C 755.581 408.748 756 413.117 756.021 421.93 C 756.047 432.971 755.977 433.442 753.544 438.568 C 750.954 444.025 746.12 449.564 742.845 450.829 C 736.398 453.317 727.287 449.702 718.402 441.133 C 716.759 439.548 715.413 441.598 714.286 447.4 C 712.205 458.124 709.029 464.93 703.552 470.407 C 701.195 472.765 699.849 473.467 697.689 473.467 C 695.166 473.467 694.836 473.202 694.4 470.829 C 693.802 467.571 693.04 449.186 692.892 434.434 C 692.825 427.735 692.427 422.952 691.88 422.26 C 689.575 419.345 690.497 409.36 693.428 405.496 C 694.562 404.001 697.654 404.259 700.675 406.101 C 702.137 406.992 704.656 407.723 706.274 407.724 C 712.845 407.731 714.485 408.559 720.782 415.045 C 729.394 423.916 733.141 425.593 736.759 422.194 C 738.905 420.178 739.012 418.87 737.672 411.055 C 736.99 407.08 736.955 404.869 737.553 403.532 C 739.276 399.676 731.926 382.404 726.213 376.886 C 723.262 374.036 722.428 372.659 722.418 370.617 C 722.407 368.54 721.905 367.742 719.981 366.748 C 717.089 365.252 716.126 362.214 717.416 358.649 C 717.927 357.233 718.349 355.554 718.351 354.916 C 718.353 354.278 718.729 352.41 719.186 350.765 C 719.852 348.37 720.457 347.721 722.225 347.513 C 725.206 347.161 731.125 350.808 735.35 355.597 L 735.35 355.596 zM 580.795 360.205 C 584.162 362.773 585.852 366.472 586.19 372.011 L 586.462 376.469 L 581.806 378.947 C 579.246 380.311 574.133 382.465 570.444 383.734 C 566.755 385.004 562.824 386.662 561.708 387.42 C 560.592 388.177 559.078 389.013 558.345 389.277 C 557.611 389.54 555.99 391.152 554.744 392.858 C 553.497 394.564 551.208 397.083 549.656 398.456 C 546.853 400.935 546.841 400.976 547.779 404.699 C 548.298 406.761 548.722 410.119 548.722 412.164 C 548.722 415.397 549.17 416.376 552.172 419.691 C 556.581 424.563 565.235 432.815 569.418 436.136 C 575.626 441.065 581.128 447.727 582.484 451.96 C 583.917 456.428 584.936 470.934 584.123 475.268 C 583.578 478.172 578.17 484.529 573.07 488.26 C 566.625 492.974 552.572 497.208 539.794 498.285 C 534.313 498.748 533.483 498.621 531.455 497.014 C 528.42 494.611 526.794 490.475 526.094 483.382 L 525.51 477.471 L 528.133 475.471 C 529.576 474.37 535.245 471.974 540.731 470.147 C 552.717 466.154 556.381 464.37 558.156 461.66 C 559.414 459.74 559.402 459.433 557.966 456.71 C 555.184 451.441 547.677 444.435 541.932 441.746 C 537.919 439.868 535.886 438.289 533.768 435.404 C 530.121 430.435 525.33 422 523.811 417.873 C 520.748 409.555 521.151 398.84 524.755 392.714 C 528.164 386.92 547.926 368.303 557.713 361.667 C 564.357 357.162 575.852 356.435 580.796 360.207 L 580.795 360.205 zM 474.15 387.579 C 480.929 390.317 493.472 401.123 494.712 405.293 C 495.043 406.409 497.27 410.791 499.659 415.032 C 504.023 422.776 506.172 429.333 505.274 432.161 C 505.009 432.997 505.363 434.497 506.062 435.494 C 508.146 438.469 507.631 442.525 504.314 449.288 C 501.957 454.091 500.678 455.773 498.809 456.532 C 497.47 457.076 494.036 458.573 491.179 459.86 C 482.891 463.59 474.155 466.306 467.16 467.325 C 461.572 468.14 460.532 468.548 459.665 470.26 C 458.233 473.091 458.393 476.929 460.327 486.12 C 463.133 499.449 461.538 504.187 453.831 505.419 C 448.125 506.332 447.605 505.683 442.454 491.262 C 441.087 487.435 439.969 483.73 439.969 483.029 C 439.969 482.328 438.909 480.619 437.614 479.232 C 435.531 477.002 434.744 476.711 430.782 476.711 C 424.797 476.711 423.737 476.205 423.737 473.346 C 423.737 472.037 422.984 469.492 422.066 467.69 C 421.147 465.888 420.507 463.449 420.645 462.269 C 420.914 459.976 421.264 459.743 430.789 455.549 C 433.998 454.136 436.772 452.567 436.953 452.063 C 437.135 451.558 436.942 447.858 436.525 443.841 C 435.593 434.872 436.197 421.491 437.892 413.549 C 439.254 407.164 443.746 395.551 444.852 395.551 C 445.45 395.551 446.662 394.393 451.946 388.77 C 454.151 386.424 456.106 385.918 463.195 385.863 C 468.167 385.824 470.854 386.244 474.151 387.576 L 474.15 387.579 zM 632.316 401.852 C 637.822 404.346 641.169 405.292 644.489 405.292 C 648.924 405.292 656.756 411.562 660.203 417.872 C 662.438 421.964 666.476 432.128 668.585 438.973 C 671.183 447.408 670.991 457.381 668.124 462.962 C 666.277 466.555 658.891 474.347 653.332 478.564 C 648.275 482.401 627.218 485.413 621.209 483.16 C 617.758 481.865 610.634 474.481 607.548 468.998 C 606.039 466.318 604.238 461.95 603.546 459.291 C 602.132 453.862 601.867 445.415 603.089 444.66 C 603.53 444.387 604.9 442.448 606.132 440.351 C 608.342 436.591 608.374 436.345 608.374 422.741 C 608.374 409.376 608.437 408.849 610.403 405.904 C 611.519 404.232 613.071 402.655 613.852 402.4 C 614.633 402.145 615.273 401.623 615.273 401.239 C 615.273 399.076 627.129 399.503 632.316 401.852 L 632.316 401.852 zM 385.663 422.835 C 392.444 424.961 393.268 426.537 396.044 442.68 C 398.699 458.119 399.982 462.681 403.44 468.974 C 406.192 473.98 407.256 480.877 407.891 497.815 C 408.151 504.733 408.541 512.22 408.76 514.452 C 409.121 518.134 408.873 518.923 406.099 522.96 C 401.165 530.138 395.926 530.403 392.723 523.634 C 391.05 520.097 390.918 517.922 391.68 506.336 C 392.191 498.575 391.976 495.712 390.045 484.423 C 387.961 472.249 387.668 471.298 385.343 469.206 C 383.98 467.979 382.411 466.974 381.856 466.974 C 380.425 466.974 375.287 473.187 374.663 475.671 C 374.375 476.816 372.517 481.181 370.532 485.372 C 368.548 489.562 366.924 493.278 366.924 493.628 C 366.924 493.979 365.9 495.247 364.648 496.446 C 362.757 498.258 361.636 498.627 358.029 498.627 C 354.054 498.627 353.44 498.367 350.769 495.542 C 349.165 493.845 347.438 491.563 346.933 490.47 C 343.449 482.93 341.817 480.304 339.21 478.047 C 336.628 475.811 336.174 474.86 335.657 470.62 C 335.001 465.231 333.235 461.026 331.824 461.496 C 331.319 461.664 330.156 462.808 329.237 464.038 C 327.794 465.97 327.597 467.264 327.786 473.568 C 327.906 477.581 327.595 482.23 327.094 483.9 C 326.3 486.549 326.442 487.553 328.209 491.767 C 330.223 496.571 330.647 501.25 330.572 517.871 C 330.549 522.953 328.494 529.55 326.322 531.515 C 323.293 534.257 311.49 531.125 309.278 526.992 C 307.49 523.652 307.003 516.27 306.841 490.076 C 306.75 475.361 306.315 461.496 305.875 459.264 C 305.133 455.503 305.347 454.406 308.79 444.283 C 311.725 435.654 313.093 432.772 315.3 430.565 C 317.987 427.878 318.314 427.775 323.837 427.877 C 327.968 427.953 330.664 428.5 333.439 429.826 C 336.957 431.507 337.657 432.356 341.356 439.435 C 343.588 443.705 347.002 449.856 348.942 453.101 C 350.881 456.347 353.372 460.976 354.477 463.388 C 356.527 467.866 359.038 470.392 360.775 469.725 C 362.595 469.027 363.702 463.96 363.613 456.736 C 363.536 450.51 363.81 448.946 365.621 445.285 C 366.774 442.953 368.105 439.317 368.578 437.205 C 369.527 432.971 373.178 423.318 374.431 421.733 C 375.347 420.573 379.857 421.017 385.661 422.835 L 385.663 422.835 zM 254.668 439.433 C 258.122 440.742 260.529 443.384 261.478 446.914 C 261.949 448.661 264.197 454.151 266.475 459.114 C 270.313 467.476 270.631 468.647 270.806 475.063 C 270.911 478.939 271.55 483.418 272.257 485.234 C 273.092 487.382 273.531 491.278 273.555 496.747 C 273.574 501.293 273.953 505.967 274.397 507.134 C 274.896 508.448 274.931 510.47 274.488 512.443 C 273.708 515.912 274.973 524.256 277.369 531.466 C 279.091 536.642 279.068 543.521 277.316 547.796 C 275.787 551.525 272.496 553.55 266.666 554.349 C 259.2 555.372 257.657 553.651 255.407 541.79 C 254.755 538.351 253.831 534.512 253.356 533.26 C 252.849 531.926 252.491 524.322 252.491 514.885 C 252.491 502.575 252.114 496.586 250.892 489.436 C 249.846 483.323 249.45 478.307 249.746 474.95 C 250.135 470.542 249.786 468.51 247.287 460.617 C 243.531 448.757 243.479 441.628 247.133 439.188 C 248.434 438.32 252.04 438.437 254.669 439.432 L 254.668 439.433 zM 463.911 405.977 C 460.307 408.18 459.624 409.312 458.162 415.495 C 456.856 421.02 455.801 442.349 456.689 445.265 C 457.466 447.816 463.443 447.013 476.33 442.626 C 489.417 438.17 491.051 436.973 491.081 431.817 C 491.097 429.12 490.572 428.236 487.048 425.03 C 484.819 423.002 481.125 418.292 478.839 414.564 C 475.51 409.135 474.003 407.456 471.272 406.133 C 467.118 404.122 466.95 404.119 463.911 405.978 L 463.911 405.977 zM 466.344 423.232 C 470.941 429.277 473.268 433.623 473.486 436.569 C 473.632 438.551 473.209 438.95 469.592 440.242 C 467.36 441.039 464.126 441.719 462.405 441.753 L 459.276 441.816 L 459.77 438.367 C 460.041 436.47 460.469 431.631 460.721 427.613 C 461.178 420.315 461.502 418.28 462.205 418.28 C 462.41 418.28 464.273 420.508 466.345 423.233 L 466.344 423.232 zM 630.13 426.625 C 625.466 428.58 624.801 429.573 623.091 437.147 C 620.38 449.149 620.852 458.946 624.32 462.638 C 626.564 465.027 627.223 465.015 638.125 462.372 C 648.137 459.946 648.548 459.56 648.548 452.588 C 648.548 450.047 649.212 447.724 650.63 445.304 C 652.517 442.084 652.621 441.471 651.738 438.74 C 649.011 430.306 643.337 424.737 637.548 424.814 C 635.786 424.838 632.448 425.652 630.129 426.625 L 630.13 426.625 zM 631.755 437.149 C 632.51 437.707 634.329 441.085 635.796 444.656 C 638.177 450.447 638.768 451.248 641.274 452.065 C 642.82 452.569 644.194 453.529 644.328 454.199 C 644.766 456.389 642.399 457.673 635.919 458.762 C 629.73 459.802 629.5 459.782 628.132 458.094 C 625.318 454.618 625.123 442.215 627.818 438.101 C 629.286 435.861 629.833 435.728 631.754 437.149 L 631.755 437.149 z"/>
</g>

</svg>